<?xml version="1.0" encoding="utf-8"?>
<!-- Generator: Adobe Illustrator 16.0.3, SVG Export Plug-In . SVG Version: 6.00 Build 0)  -->
<!DOCTYPE svg PUBLIC "-//W3C//DTD SVG 1.1//EN" "http://www.w3.org/Graphics/SVG/1.1/DTD/svg11.dtd">
<svg version="1.1" id="Layer_1" xmlns="http://www.w3.org/2000/svg" xmlns:xlink="http://www.w3.org/1999/xlink" x="0px" y="0px"
	 width="600px" height="600px" viewBox="0 0 600 600" enable-background="new 0 0 600 600" xml:space="preserve">
<g display="none">
	<path display="inline" fill="#C52755" d="M289.285,453.027c6.004,4.649,14.328,4.843,20.527,0.394
		c6.005-4.26,146.227-105.541,146.227-209.527c0-60.419-34.673-83.85-55.396-92.37c-32.339-13.364-72.813-8.713-100.707,10.07
		c-16.653-11.813-36.605-18.011-57.52-18.011c-10.461,0-21.309,1.55-31.771,4.84c-34.278,10.651-58.49,36.602-64.493,69.326
		C132.984,289.982,181.014,369.182,289.285,453.027z M269.719,231.114c0-17.432,14.335-30.405,31.178-31.178
		c16.86-0.777,31.188,14.91,31.188,31.178v36.013c0,17.436-14.326,30.406-31.188,31.178c-16.838,0.782-31.178-14.91-31.178-31.178
		V231.114z"/>
	<path display="inline" fill="#010101" d="M241.486,140.277c21.3,0,41.63,6.39,58.672,18.397
		c28.472-19.17,69.724-23.821,102.648-10.264c21.104,8.713,56.354,32.531,56.354,94.307c0,106.117-143.117,209.521-149.119,213.779
		c-6.397,4.458-14.919,4.26-21.12-0.378C178.539,370.324,129.341,289.58,143.092,215.8c6.201-33.501,30.791-59.838,65.843-70.683
		C219.792,141.828,230.63,140.277,241.486,140.277z M274.021,183.652c-18.208-10.067-39.13-9.68-54.428-4.84
		c-22.271,6.974-37.962,23.237-41.638,43.572c-10.453,56.733,31.761,124.896,122.204,197.714
		c12.787-10.063,35.644-29.049,58.292-53.063c30.022-31.95,65.662-79.199,65.662-124.123c0-30.985-12.007-52.479-34.665-61.776
		c-20.535-8.52-45.505-5.419-63.143,3.294c37.955,45.508,32.928,79.787,25.765,97.205c-9.101,21.697-29.822,36.409-51.911,36.409
		c-22.847,0-44.345-14.522-53.26-36.21C239.742,264.216,234.89,229.937,274.021,183.652z M300.158,282.605
		c6.396,0,15.116-4.646,19.375-14.713c6.392-15.494-0.773-37.374-19.565-60.226c-19.17,23.238-26.72,45.118-20.536,60.416
		C283.503,277.958,292.805,282.605,300.158,282.605z"/>
</g>
<g display="none">
	<path display="inline" fill="#E2E2E2" d="M289.509,453.929c6.019,4.667,14.364,4.857,20.582,0.396
		c6.021-4.271,146.61-105.818,146.61-210.079c0-60.578-34.77-84.07-55.544-92.612c-32.423-13.399-73.009-8.737-100.97,10.097
		c-16.698-11.845-36.702-18.058-57.671-18.058c-10.489,0-21.365,1.554-31.85,4.853c-34.369,10.678-58.644,36.698-64.664,69.508
		C132.798,290.456,180.953,369.863,289.509,453.929z M269.893,231.433c0-17.477,14.372-30.484,31.259-31.26
		c16.899-0.779,31.269,14.95,31.269,31.26v36.108c0,17.481-14.364,30.485-31.269,31.26c-16.887,0.783-31.259-14.95-31.259-31.26
		V231.433z"/>
	<path display="inline" fill="#969696" d="M241.581,140.358c21.361,0,41.744,6.407,58.83,18.446
		c28.547-19.221,69.908-23.884,102.924-10.291c21.159,8.736,56.5,32.616,56.5,94.554c0,106.396-143.493,210.07-149.513,214.341
		c-6.415,4.47-14.958,4.271-21.175-0.379c-110.675-86.021-159.998-166.979-146.214-240.95c6.213-33.589,30.876-59.997,66.02-70.869
		C219.828,141.912,230.704,140.358,241.581,140.358z M274.205,183.846c-18.256-10.093-39.229-9.705-54.571-4.853
		c-22.326,6.992-38.059,23.298-41.749,43.686c-10.484,56.884,31.845,125.225,122.524,198.233
		c12.822-10.093,35.737-29.124,58.446-53.202c30.104-32.035,65.834-79.407,65.834-124.45c0-31.066-12.039-52.616-34.761-61.938
		c-20.59-8.543-45.624-5.434-63.303,3.302c38.054,45.628,33.008,79.997,25.825,97.461c-9.119,21.752-29.898,36.504-52.047,36.504
		c-22.907,0-44.461-14.562-53.396-36.306C239.833,264.622,234.976,230.253,274.205,183.846z M300.41,283.06
		c6.415,0,15.155-4.659,19.427-14.751c6.407-15.535-0.771-37.473-19.617-60.384c-19.22,23.298-26.79,45.235-20.589,60.573
		C283.712,278.401,293.038,283.06,300.41,283.06z"/>
</g>
<path fill="#173F92" d="M537.494,97.83c-29.661-29.663-68.938-45.877-110.852-45.877c-41.91,0-81.304,16.331-110.971,45.997
	l-15.491,15.492l-15.734-15.734c-29.663-29.663-69.177-46.117-111.091-46.117c-41.792,0-81.186,16.333-110.729,45.878
	c-29.663,29.663-45.997,69.057-45.878,110.97c0,41.912,16.455,81.187,46.119,110.85l225.542,225.54
	c3.124,3.123,7.328,4.806,11.411,4.806c4.082,0,8.287-1.562,11.412-4.686L537.25,319.764c29.665-29.663,45.998-69.055,45.998-110.97
	C583.37,166.886,567.158,127.493,537.494,97.83z"/>
<path fill="#173F92" stroke="#173F92" stroke-miterlimit="10" d="M435.701,298.219L299.887,433.502L164.376,297.991
	c-14.896-14.896-23.104-34.656-23.104-55.709c0-21.053,8.132-40.813,23.029-55.633c14.82-14.821,34.581-23.029,55.557-23.029
	c21.052,0,40.889,8.208,55.785,23.105l17.177,17.176c4.028,4.028,10.489,4.028,14.516,0l17.024-17.024
	c14.896-14.896,34.729-23.104,55.711-23.104c20.976,0,40.731,8.208,55.632,23.028c14.896,14.896,23.029,34.656,23.029,55.709
	C458.806,263.563,450.598,283.323,435.701,298.219z"/>
</svg>
