<svg id="SvgjsSvg1001" width="288" height="288" xmlns="http://www.w3.org/2000/svg" version="1.1" xmlns:xlink="http://www.w3.org/1999/xlink" xmlns:svgjs="http://svgjs.com/svgjs"><defs id="SvgjsDefs1002"></defs><g id="SvgjsG1008" transform="matrix(0.9167,0,0,0.9167,11.995214378833765,11.934042053508762)"><svg xmlns="http://www.w3.org/2000/svg" width="288" height="288" fill="none" viewBox="0 0 28 27"><path fill="#ffffff" d="M27.0795 13.5072C27.0792 11.0078 26.3627 8.56071 25.0148 6.45578C23.667 4.35086 21.7442 2.67621 19.4742 1.63011C17.2041 0.583998 14.6819 0.210236 12.206 0.553069C9.73015 0.895903 7.40437 1.94097 5.504 3.56456C3.60363 5.18814 2.20827 7.32225 1.4831 9.71422C0.757937 12.1062 0.733335 14.6559 1.41221 17.0614C2.09109 19.4669 3.44501 21.6276 5.31369 23.2875C7.18237 24.9475 9.48756 26.0372 11.9563 26.4278V17.288H8.63534V13.5072H11.9563V10.6257C11.9563 7.34766 13.909 5.53693 16.8966 5.53693C17.8775 5.55057 18.8561 5.63596 19.8245 5.79239V9.01117H18.1752C17.8941 8.97388 17.6083 9.00028 17.3389 9.0884C17.0694 9.17652 16.8233 9.32412 16.6186 9.52026C16.4139 9.71641 16.256 9.95608 16.1564 10.2215C16.0569 10.487 16.0184 10.7714 16.0437 11.0538V13.5073H19.6712L19.0913 17.288H16.0437V26.4278C19.1201 25.9404 21.9218 24.3715 23.9447 22.003C25.9677 19.6346 27.0793 16.622 27.0795 13.5072Z" class="color6C747D svgShape"></path></svg></g></svg>