<?xml version="1.0" encoding="utf-8"?>
<!-- Generator: Adobe Illustrator 16.0.3, SVG Export Plug-In . SVG Version: 6.00 Build 0)  -->
<!DOCTYPE svg PUBLIC "-//W3C//DTD SVG 1.1//EN" "http://www.w3.org/Graphics/SVG/1.1/DTD/svg11.dtd">
<svg version="1.1" id="Layer_1" xmlns="http://www.w3.org/2000/svg" xmlns:xlink="http://www.w3.org/1999/xlink" x="0px" y="0px"
	 width="48px" height="48px" viewBox="0 0 48 48" enable-background="new 0 0 48 48" xml:space="preserve">
<path fill="#173F92" d="M39.5,43h-9c-1.381,0-2.5-1.119-2.5-2.5v-9c0-1.105-0.895-2-2-2h-4c-1.105,0-2,0.895-2,2v9
	c0,1.381-1.119,2.5-2.5,2.5h-9C7.119,43,6,41.881,6,40.5V21.413c0-2.299,1.054-4.471,2.859-5.893L23.071,4.321
	c0.545-0.428,1.313-0.428,1.857,0L39.143,15.52C40.947,16.942,42,19.113,42,21.411V40.5C42,41.881,40.881,43,39.5,43z"/>
</svg>
