<svg id="SvgjsSvg1001" width="288" height="288" xmlns="http://www.w3.org/2000/svg" version="1.1" xmlns:xlink="http://www.w3.org/1999/xlink" xmlns:svgjs="http://svgjs.com/svgjs"><defs id="SvgjsDefs1002"></defs><g id="SvgjsG1008" transform="matrix(0.9167,0,0,0.9167,11.965695626115803,11.931215023851394)"><svg xmlns="http://www.w3.org/2000/svg" width="288" height="288" fill="none" viewBox="0 0 27 27"><path fill="#ffffff" d="M26.3971 8.07834C26.371 6.99892 26.1665 5.93126 25.7918 4.9186C25.4669 4.04691 24.9515 3.25874 24.2833 2.61155C23.6348 1.94557 22.843 1.43615 21.9681 1.12198C20.9615 0.736587 19.8956 0.528569 18.818 0.507159C17.4298 0.443719 17.0052 0.427979 13.4746 0.427979C9.93635 0.427979 9.50051 0.443719 8.10765 0.507159C7.03382 0.531131 5.97205 0.739085 4.96852 1.12198C4.09335 1.43171 3.30273 1.94181 2.65984 2.61155C1.99234 3.26061 1.47524 4.04811 1.14496 4.9186C0.773462 5.93189 0.571126 6.99938 0.546048 8.07834C0.490548 9.46017 0.460388 9.9038 0.460388 13.4374C0.460388 16.9616 0.490548 17.4052 0.546048 18.7934C0.572724 19.8711 0.775017 20.9373 1.14496 21.9499C1.47616 22.8181 1.9932 23.6034 2.65984 24.2508C3.30333 24.9213 4.09361 25.4333 4.96852 25.7467C5.97042 26.1336 7.03367 26.3376 8.10765 26.3488C9.50051 26.4184 9.93635 26.428 13.4746 26.428C17.0052 26.428 17.4298 26.4184 18.818 26.3488C19.8958 26.3401 20.9631 26.1361 21.9681 25.7467C22.8427 25.4289 23.6342 24.9175 24.2833 24.2508C24.9507 23.6053 25.466 22.8193 25.7918 21.9499C26.1649 20.9379 26.3694 19.8716 26.3971 18.7934C26.4573 17.4052 26.4732 16.9616 26.4732 13.4374C26.4732 9.9038 26.4573 9.46017 26.3971 8.07834ZM24.0472 18.6889C24.041 19.5084 23.8908 20.3204 23.6034 21.0879C23.3999 21.6571 23.0656 22.1705 22.6274 22.5869C22.2125 23.0232 21.7029 23.3582 21.1378 23.5661C20.3632 23.8479 19.547 23.9989 18.7228 24.013C17.3458 24.0795 16.9306 24.0954 13.4746 24.0954C10.0028 24.0954 9.59556 24.0795 8.21698 24.013C7.39328 23.9993 6.57763 23.8483 5.80366 23.5661C5.23923 23.3552 4.7292 23.0206 4.31099 22.5869C3.87336 22.1681 3.53633 21.6556 3.32524 21.0879C3.0465 20.3184 2.90075 19.5072 2.89424 18.6889C2.82771 17.3197 2.82299 16.9046 2.82299 13.4374C2.82299 9.95767 2.82771 9.55201 2.89424 8.18608C2.90209 7.35855 3.04775 6.53812 3.32524 5.75847C3.5413 5.19786 3.8778 4.69153 4.31099 4.27523C4.73182 3.84462 5.24112 3.51051 5.8037 3.29598C6.57625 3.00901 7.39291 2.85889 8.21702 2.85236C9.5956 2.78583 10.0029 2.77626 13.4746 2.77626C16.9306 2.77626 17.3459 2.78583 18.7229 2.85236C19.5475 2.85932 20.3646 3.00942 21.1379 3.29598C21.7011 3.5075 22.21 3.84205 22.6274 4.27524C23.0612 4.68909 23.395 5.19634 23.6034 5.75848C23.8896 6.53623 24.0397 7.35742 24.0472 8.18609C24.1138 9.55202 24.1344 9.95768 24.1344 13.4374C24.1343 16.9046 24.1137 17.3197 24.0472 18.6889ZM13.4746 6.7632C12.1555 6.76384 10.8661 7.15556 9.76958 7.88884C8.67302 8.62213 7.81847 9.66406 7.31395 10.8829C6.80944 12.1018 6.67761 13.4429 6.93513 14.7366C7.19265 16.0304 7.82797 17.2188 8.76076 18.1516C9.69355 19.0843 10.8819 19.7196 12.1757 19.9771C13.4695 20.2346 14.8106 20.1027 16.0294 19.5982C17.2483 19.0936 18.2902 18.2391 19.0234 17.1425C19.7567 16.0459 20.1484 14.7565 20.149 13.4374C20.1502 12.5606 19.9783 11.6922 19.6433 10.8819C19.3083 10.0716 18.8167 9.33534 18.1967 8.71535C17.5767 8.09535 16.8405 7.60378 16.0302 7.2688C15.2199 6.93382 14.3515 6.762 13.4746 6.7632ZM13.4746 17.7698C12.6184 17.7689 11.7816 17.5141 11.0701 17.0377C10.3586 16.5614 9.80426 15.8848 9.47716 15.0935C9.15006 14.3021 9.06488 13.4316 9.23238 12.5919C9.39988 11.7522 9.81255 10.981 10.4182 10.3757C11.0239 9.77047 11.7954 9.35835 12.6353 9.19144C13.4751 9.02454 14.3456 9.11033 15.1366 9.438C15.9277 9.76566 16.6039 10.3205 17.0798 11.0323C17.5557 11.7442 17.8098 12.5811 17.8102 13.4374C17.8093 14.5867 17.3521 15.6886 16.5392 16.501C15.7262 17.3134 14.624 17.7698 13.4746 17.7698ZM20.4104 4.92498C20.1005 4.92309 19.797 5.01323 19.5383 5.18398C19.2797 5.35472 19.0776 5.59839 18.9575 5.88412C18.8375 6.16984 18.8049 6.48477 18.864 6.78901C18.9231 7.09325 19.0711 7.37311 19.2894 7.59314C19.5076 7.81317 19.7863 7.96348 20.09 8.02502C20.3938 8.08655 20.709 8.05656 20.9956 7.93882C21.2823 7.82109 21.5276 7.62092 21.7005 7.36367C21.8733 7.10641 21.9659 6.80365 21.9665 6.49373C21.9681 6.28835 21.929 6.08468 21.8515 5.89447C21.774 5.70426 21.6596 5.53127 21.515 5.38545C21.3704 5.23963 21.1983 5.12387 21.0087 5.04484C20.8191 4.96582 20.6158 4.92508 20.4104 4.92498Z" class="color6C747D svgShape"></path></svg></g></svg>