<?xml version="1.0" encoding="utf-8"?>
<!-- Generator: Adobe Illustrator 16.0.3, SVG Export Plug-In . SVG Version: 6.00 Build 0)  -->
<!DOCTYPE svg PUBLIC "-//W3C//DTD SVG 1.1//EN" "http://www.w3.org/Graphics/SVG/1.1/DTD/svg11.dtd">
<svg version="1.1" id="Layer_1" xmlns="http://www.w3.org/2000/svg" xmlns:xlink="http://www.w3.org/1999/xlink" x="0px" y="0px"
	 width="48px" height="48px" viewBox="0 0 48 48" enable-background="new 0 0 48 48" xml:space="preserve">
<path display="none" fill="#0166D3" d="M39.5,43h-9c-1.381,0-2.5-1.119-2.5-2.5v-9c0-1.105-0.895-2-2-2h-4c-1.105,0-2,0.895-2,2v9
	c0,1.381-1.119,2.5-2.5,2.5h-9C7.119,43,6,41.881,6,40.5V21.413c0-2.299,1.054-4.471,2.859-5.893L23.071,4.321
	c0.545-0.428,1.313-0.428,1.857,0L39.143,15.52C40.947,16.942,42,19.113,42,21.411V40.5C42,41.881,40.881,43,39.5,43z"/>
<path display="none" fill="#0166D3" d="M41.615,42.602c0.718,0,1.24-0.263,1.695-0.719c0.457-0.457,0.457-1.238,0.457-1.695
	c-0.718-4.242-2.479-7.895-5.48-10.896c-1.695-1.694-3.979-3.197-6.196-4.241h-0.262l0.262-0.262
	c3.718-3.196,4.958-8.677,3.195-13.374c-1.5-3.458-4.696-6.198-8.479-6.982c-3.458-0.782-7.178,0-9.917,2.284
	c-3.197,2.479-4.958,5.741-4.958,9.395c0,3.458,1.501,6.655,3.98,8.938l0.261,0.263H15.91c-2.284,1.043-4.437,2.479-6.198,4.24
	c-3.001,3-4.958,6.654-5.48,10.896c0,0.456,0,1.238,0.457,1.693c0.457,0.457,1.044,0.719,1.696,0.719"/>
<g>
	<g>
		<g>
			<path display="none" fill="#173F92" d="M24,43.955c11,0,19.956-8.951,19.956-19.954C43.955,12.997,35,4.045,24,4.045
				c-11.004,0-19.954,8.952-19.954,19.956C4.045,35.004,12.996,43.955,24,43.955z M24,9.779c7.839,0,14.221,6.38,14.221,14.222
				c0,7.845-6.382,14.222-14.221,14.222c-7.84,0-14.22-6.384-14.22-14.222C9.779,16.16,16.16,9.779,24,9.779z"/>
			<path fill="#173F92" d="M13.129,35.623c2.831,1.999,6.032,3.247,9.512,3.602v2.877c0,2.609,4.041,2.694,4.041,0v-2.776
				c5.892-0.554,9.881-3.94,9.881-9.045c0-4.957-3.02-7.786-10.063-9.543v-8.914c1.571,0.369,3.146,1.07,4.771,2.042
				c1.877,1.123,3.99-0.195,3.99-2.133c0-1.113-0.652-1.808-1.391-2.226c-2.135-1.343-4.457-2.226-7.188-2.552V5.932
				c0-2.683-4.041-2.595-4.041,0v0.974c-5.794,0.464-9.743,3.899-9.743,8.861c0,5.238,3.158,7.79,9.927,9.555v9.126
				c-2.547-0.439-4.685-1.517-6.865-3.093c-0.418-0.323-0.971-0.508-1.527-0.508C11.893,30.848,10.865,34.148,13.129,35.623z
				 M26.498,26.2c3.564,1.112,4.585,2.377,4.585,4.405c0,2.237-1.622,3.713-4.585,4.039V26.2z M18.374,15.44
				c0-2.042,1.486-3.619,4.451-3.895v8.212C19.257,18.595,18.374,17.389,18.374,15.44z"/>
		</g>
	</g>
</g>
</svg>
