<?xml version="1.0" encoding="utf-8"?>
<!-- Generator: Adobe Illustrator 16.0.3, SVG Export Plug-In . SVG Version: 6.00 Build 0)  -->
<!DOCTYPE svg PUBLIC "-//W3C//DTD SVG 1.1//EN" "http://www.w3.org/Graphics/SVG/1.1/DTD/svg11.dtd">
<svg version="1.1" id="Layer_1" xmlns="http://www.w3.org/2000/svg" xmlns:xlink="http://www.w3.org/1999/xlink" x="0px" y="0px"
	 width="50px" height="50px" viewBox="0 0 50 50" enable-background="new 0 0 50 50" xml:space="preserve">
<path fill="#173F92" d="M21,3C11.621,3,4,10.621,4,20s7.621,17,17,17c3.711,0,7.141-1.195,9.938-3.219l13.156,13.125l2.813-2.813
	l-13-13.03C36.461,28.086,38,24.223,38,20C38,10.621,30.379,3,21,3z M21,5c8.297,0,15,6.703,15,15s-6.703,15-15,15S6,28.297,6,20
	S12.703,5,21,5z"/>
</svg>
