<?xml version="1.0" encoding="utf-8"?>
<!-- Generator: Adobe Illustrator 16.0.3, SVG Export Plug-In . SVG Version: 6.00 Build 0)  -->
<!DOCTYPE svg PUBLIC "-//W3C//DTD SVG 1.1//EN" "http://www.w3.org/Graphics/SVG/1.1/DTD/svg11.dtd">
<svg version="1.1" id="Layer_1" xmlns="http://www.w3.org/2000/svg" xmlns:xlink="http://www.w3.org/1999/xlink" x="0px" y="0px"
	 width="48px" height="48px" viewBox="0 0 48 48" enable-background="new 0 0 48 48" xml:space="preserve">
<path display="none" fill="#0166D3" d="M39.5,43h-9c-1.381,0-2.5-1.119-2.5-2.5v-9c0-1.105-0.895-2-2-2h-4c-1.105,0-2,0.895-2,2v9
	c0,1.381-1.119,2.5-2.5,2.5h-9C7.119,43,6,41.881,6,40.5V21.413c0-2.299,1.054-4.471,2.859-5.893L23.071,4.321
	c0.545-0.428,1.313-0.428,1.857,0L39.143,15.52C40.947,16.942,42,19.113,42,21.411V40.5C42,41.881,40.881,43,39.5,43z"/>
<path fill="#173F92" d="M41.615,42.602c0.718,0,1.24-0.263,1.695-0.719c0.457-0.457,0.457-1.238,0.457-1.695
	c-0.718-4.242-2.479-7.895-5.48-10.896c-1.695-1.694-3.979-3.197-6.196-4.241h-0.262l0.262-0.262
	c3.718-3.196,4.958-8.677,3.195-13.374c-1.5-3.458-4.696-6.198-8.479-6.982c-3.458-0.782-7.178,0-9.917,2.284
	c-3.197,2.479-4.958,5.741-4.958,9.395c0,3.458,1.501,6.655,3.98,8.938l0.261,0.263H15.91c-2.284,1.043-4.437,2.479-6.198,4.24
	c-3.001,3-4.958,6.654-5.48,10.896c0,0.456,0,1.238,0.457,1.693c0.457,0.457,1.044,0.719,1.696,0.719"/>
</svg>
