<svg width="183" height="52" viewBox="0 0 183 52" fill="none" xmlns="http://www.w3.org/2000/svg">
<g clip-path="url(#clip0_4016_1463)">
<path d="M4.99219 10.3438H14.6396C18.8341 10.3438 22.2526 13.7227 22.2526 17.9152H12.6052C8.41072 17.9152 4.99219 14.5153 4.99219 10.3438Z" fill="#EBBD30"/>
<path d="M0 33.0581L4.82369 24.7567C6.92095 21.1482 11.5769 19.8968 15.2051 21.9826L10.3814 30.284C8.28417 33.8925 3.62826 35.1439 0 33.0581Z" fill="#EBBD30"/>
<path d="M17.2812 48.7219L12.4575 40.4204C10.3603 36.812 11.5976 32.1815 15.2469 30.0957L20.0706 38.3972C22.1678 42.0056 20.9095 46.6152 17.2812 48.7219Z" fill="#EBBD30"/>
<path d="M39.5534 41.673H29.906C25.7115 41.673 22.293 38.294 22.293 34.1016H31.9404C36.1349 34.1016 39.5534 37.4806 39.5534 41.673Z" fill="#EBBD30"/>
<path d="M44.5411 18.9598L39.7174 27.2612C37.6201 30.8697 32.9642 32.1211 29.3359 30.0353L34.1596 21.7339C36.2569 18.1046 40.9128 16.874 44.5411 18.9598Z" fill="#EBBD30"/>
<path d="M27.2898 3.29492L32.1135 11.5964C34.2108 15.2048 32.9734 19.8353 29.3242 21.9211L24.5005 13.6196C22.4032 10.0112 23.6406 5.38072 27.2898 3.29492Z" fill="#EBBD30"/>
<path d="M59.7136 45.0722C59.7136 44.3631 60.3008 43.7999 61.7689 43.7999C62.5869 43.7999 63.5306 44.0502 64.3695 44.5299L64.9148 43.1742C64.0969 42.6319 62.9014 42.3398 61.7689 42.3398C59.1893 42.3398 57.9729 43.633 57.9729 45.1348C57.9729 48.6181 63.5726 47.304 63.5726 49.3273C63.5726 50.0156 62.9434 50.537 61.4753 50.537C60.3218 50.537 59.1264 50.099 58.3504 49.515L57.7422 50.8708C58.5182 51.5382 59.9863 51.9971 61.4543 51.9971C64.034 51.9971 65.2713 50.7039 65.2713 49.2021C65.3133 45.7814 59.7136 47.0746 59.7136 45.0722ZM74.8558 47.7212C74.8558 49.661 73.9959 50.4745 72.4649 50.4745C70.9339 50.4745 70.0741 49.6401 70.0741 47.7212V42.4858H68.3124V47.7838C68.3124 50.5162 69.8643 51.9971 72.444 51.9971C75.0236 51.9971 76.5756 50.5162 76.5756 47.7838V42.4858H74.8558V47.7212ZM84.2725 42.4858H80.3926V51.8719H82.1543V49.1604H84.2935C86.7682 49.1604 88.3202 47.8881 88.3202 45.8231C88.2783 43.7582 86.7473 42.4858 84.2725 42.4858ZM84.1886 47.7003H82.1333V43.9668H84.1886C85.7196 43.9668 86.5166 44.6551 86.5166 45.8231C86.5166 47.012 85.7196 47.7003 84.1886 47.7003ZM93.1229 47.8255H97.674V46.3863H93.1229V43.9459H98.2612V42.4858H91.3822V51.8719H98.45V50.4119H93.1229V47.8255ZM109.649 45.8231C109.649 43.7373 108.118 42.4858 105.623 42.4858H101.743V51.8719H103.504V49.1395H105.644C105.769 49.1395 105.895 49.1395 106 49.1187L107.93 51.8719H109.817L107.657 48.785C108.936 48.2844 109.649 47.2415 109.649 45.8231ZM105.56 47.7003H103.504V43.9668H105.56C107.091 43.9668 107.888 44.6551 107.888 45.8231C107.888 47.012 107.091 47.7003 105.56 47.7003ZM121.834 42.4858L118.164 48.7015L114.41 42.4858H112.963V51.8719H114.641V45.7397L117.745 50.8082H118.521L121.625 45.6563L121.646 51.8719H123.302L123.281 42.4858H121.834ZM130.077 42.4858L125.84 51.8719H127.644L128.567 49.7027H133.285L134.229 51.8719H136.054L131.796 42.4858H130.077ZM129.175 48.3261L130.936 44.2171L132.719 48.3261H129.175ZM146.519 45.8231C146.519 43.7373 144.988 42.4858 142.492 42.4858H138.612V51.8719H140.374V49.1395H142.513C142.639 49.1395 142.765 49.1395 142.87 49.1187L144.799 51.8719H146.687L144.506 48.785C145.785 48.2844 146.519 47.2415 146.519 45.8231ZM142.408 47.7003H140.353V43.9668H142.408C143.939 43.9668 144.736 44.6551 144.736 45.8231C144.757 47.012 143.96 47.7003 142.408 47.7003ZM158.201 42.4858H156.229L151.573 47.304V42.4858H149.812V51.8719H151.573V49.4733L153.063 47.9506L156.397 51.8719H158.452L154.237 46.6783L158.201 42.4858ZM162.731 47.8255H167.282V46.3863H162.731V43.9459H167.869V42.4858H160.99V51.8719H168.058V50.4119H162.731V47.8255ZM170.155 42.4858V43.9668H173.28V51.8719H175.042V43.9668H178.167V42.4858H170.155Z" fill="#EBBD30"/>
<path d="M80.302 23.797C80.302 23.6093 80.281 23.4216 80.281 23.2338C80.281 23.067 80.26 22.8792 80.239 22.7124C80.2181 22.5455 80.2181 22.3787 80.1971 22.2118C80.1761 22.0449 80.1552 21.8989 80.1342 21.7321C80.1132 21.5861 80.0922 21.4192 80.0503 21.2732C80.0293 21.1272 79.9874 20.9812 79.9664 20.8352C79.9454 20.6892 79.9035 20.564 79.8615 20.418C79.8406 20.2929 79.7986 20.1469 79.7567 20.0217C79.7147 19.8966 79.6728 19.7714 79.6518 19.6463C79.6099 19.5211 79.5679 19.396 79.526 19.2708C79.484 19.1457 79.4421 19.0414 79.4001 18.9162C79.3582 18.7911 79.3162 18.6868 79.2743 18.5825C79.2324 18.4782 79.1904 18.3531 79.1275 18.2488C79.0855 18.1445 79.0226 18.0402 78.9807 17.9359C78.9387 17.8316 78.8758 17.7273 78.8339 17.623C78.7919 17.5187 78.729 17.4145 78.6661 17.331C78.6242 17.2267 78.5612 17.1433 78.4983 17.039C78.4354 16.9347 78.3935 16.8513 78.3305 16.7679C78.2676 16.6844 78.2257 16.5801 78.1628 16.4967C78.0998 16.4133 78.0369 16.3298 77.974 16.2256C77.9111 16.1421 77.8482 16.0587 77.7852 15.9753C77.7223 15.8918 77.6594 15.8084 77.5965 15.725C77.5336 15.6415 77.4707 15.5581 77.4077 15.4747C77.3448 15.3912 77.2819 15.3078 77.219 15.2452C77.1561 15.1618 77.0932 15.0992 77.0302 15.0158C76.9673 14.9324 76.9044 14.8698 76.8205 14.7864C76.7576 14.7238 76.6947 14.6403 76.6108 14.5778C76.5898 14.5569 76.5898 14.5361 76.5688 14.5361C76.5269 14.4735 76.464 14.4318 76.4011 14.3692C76.3381 14.3066 76.2542 14.2232 76.1913 14.1606C76.1284 14.098 76.0445 14.0355 75.9816 13.9729C75.9187 13.9103 75.8348 13.8477 75.7719 13.7852C75.688 13.7226 75.6251 13.66 75.5622 13.5974C75.4783 13.5349 75.4154 13.4723 75.3315 13.4097C75.2476 13.3472 75.1847 13.2846 75.1008 13.2429C75.0169 13.1803 74.954 13.1386 74.8701 13.076C74.7862 13.0134 74.7233 12.9717 74.6394 12.9091C74.5555 12.8466 74.4716 12.8048 74.4087 12.7423C74.3248 12.7006 74.2409 12.638 74.178 12.5963C74.0941 12.5545 74.0102 12.492 73.9263 12.4503C73.8424 12.4085 73.7585 12.346 73.6746 12.3043C73.5907 12.2625 73.5068 12.2208 73.423 12.1582C73.3391 12.1165 73.2552 12.0748 73.1713 12.0331C73.0874 11.9914 73.0035 11.9497 72.9196 11.908C72.8357 11.8662 72.7518 11.8245 72.6679 11.7828C72.5841 11.7411 72.5002 11.6994 72.4163 11.6785C72.3324 11.6368 72.2485 11.6159 72.1436 11.5742C72.0597 11.5325 71.9759 11.5117 71.871 11.4699C71.7871 11.4282 71.6822 11.4074 71.5983 11.3656C71.5145 11.3239 71.4096 11.3031 71.3257 11.2822C71.2418 11.2614 71.1369 11.2196 71.0531 11.1988C70.9482 11.1779 70.8643 11.1571 70.7594 11.1153C70.6546 11.0945 70.5707 11.0736 70.4658 11.0528C70.361 11.0319 70.2771 11.0111 70.1722 10.9902C70.0673 10.9693 69.9835 10.9485 69.8786 10.9276C69.7737 10.9068 69.6898 10.8859 69.585 10.8859C69.4801 10.8651 69.3752 10.8651 69.2914 10.8442C69.1865 10.8233 69.0816 10.8233 68.9977 10.8025C68.8929 10.7816 68.788 10.7816 68.6832 10.7816C68.5783 10.7816 68.4734 10.7608 68.3686 10.7608C68.2637 10.7608 68.1588 10.7608 68.054 10.7399C67.9491 10.7399 67.8443 10.7399 67.7394 10.7399C67.7184 10.7399 67.6765 10.7399 67.6555 10.7399C67.5716 10.7399 67.4877 10.7399 67.4248 10.7399C67.3199 10.7399 67.2151 10.7399 67.0892 10.7399C66.9844 10.7399 66.8795 10.7399 66.7537 10.7608C66.6488 10.7608 66.523 10.7816 66.4181 10.7816C66.3133 10.7816 66.1874 10.8025 66.0826 10.8025C65.9567 10.8025 65.8519 10.8233 65.747 10.8442C65.6421 10.8651 65.5163 10.8651 65.4114 10.8859C65.2856 10.9068 65.1807 10.9276 65.0549 10.9485C64.9291 10.9693 64.8242 10.9902 64.6984 11.0111C64.5725 11.0319 64.4467 11.0528 64.3418 11.0945C64.216 11.1153 64.0902 11.1571 63.9643 11.1779C63.8385 11.2196 63.7127 11.2405 63.5868 11.2822C63.461 11.3239 63.3351 11.3448 63.2093 11.3865C63.0835 11.4282 62.9367 11.4699 62.8108 11.5117C62.685 11.5534 62.5382 11.6159 62.4124 11.6577C62.2656 11.7202 62.1397 11.7619 61.9929 11.8245C61.8461 11.8871 61.6993 11.9497 61.5525 12.0331C61.4057 12.1165 61.2589 12.1791 61.1121 12.2625C60.9443 12.346 60.7975 12.4503 60.6507 12.5337C60.4829 12.638 60.3151 12.7423 60.1473 12.8674C59.9586 12.9926 59.7908 13.1177 59.602 13.2637C59.3923 13.4306 59.2036 13.5974 59.0148 13.7643C58.8051 13.952 58.5954 14.1606 58.4066 14.3692V-0.00195312H55.9948C55.9528 -0.00195312 55.9318 -0.00195312 55.8899 -0.00195312C55.785 -0.00195312 55.6592 0.0189049 55.5543 0.0397628C55.4285 0.0606208 55.3027 0.0814788 55.1768 0.123195C55.03 0.164911 54.9042 0.206627 54.7783 0.269201C54.6106 0.331775 54.4638 0.436064 54.3169 0.519496C54.0653 0.68636 53.8346 0.915798 53.6458 1.16609C53.478 1.39553 53.3312 1.66668 53.2264 1.93784C53.1215 2.22985 53.0586 2.52186 53.0586 2.85559C53.0586 2.87645 53.0586 2.89731 53.0586 2.93902V36.8958H55.4704C55.4914 36.8958 55.4914 36.8958 55.5124 36.8958C55.6172 36.8958 55.7431 36.8958 55.8479 36.875C55.9738 36.8541 56.0996 36.8332 56.2045 36.8124C56.3303 36.7707 56.4771 36.7289 56.603 36.6872C56.7707 36.6247 56.9175 36.5412 57.0434 36.4578C57.2531 36.3118 57.4628 36.1449 57.6306 35.9572C57.9452 35.6026 58.1969 35.1855 58.3017 34.7057C58.3647 34.4763 58.3856 34.2468 58.3856 33.9965C58.4485 34.0591 58.5115 34.1217 58.5744 34.1843C58.6373 34.2468 58.7212 34.3303 58.7841 34.3928C58.847 34.4554 58.9309 34.518 58.9938 34.6014C59.0567 34.664 59.1406 34.7266 59.2036 34.7892C59.2874 34.8517 59.3504 34.9143 59.4133 34.9769C59.4972 35.0394 59.5601 35.102 59.644 35.1646C59.7279 35.2272 59.7908 35.2897 59.8747 35.3315C59.9586 35.394 60.0215 35.4357 60.1054 35.4983C60.1893 35.5609 60.2522 35.6026 60.3361 35.6652C60.42 35.7069 60.5039 35.7695 60.5668 35.8112C60.6507 35.8529 60.7346 35.9155 60.8184 35.9572C60.9023 35.9989 60.9862 36.0615 61.0701 36.1032C61.154 36.1449 61.2379 36.1866 61.3218 36.2284C61.4057 36.2701 61.4896 36.3118 61.5735 36.3535C61.6573 36.3952 61.7412 36.4369 61.8251 36.4786C61.909 36.5204 61.9929 36.5621 62.0768 36.6038C62.1607 36.6455 62.2446 36.6872 62.3285 36.7081C62.4124 36.7498 62.4962 36.7707 62.6011 36.8124C62.685 36.8541 62.7899 36.875 62.8738 36.9167C62.9576 36.9375 63.0625 36.9792 63.1464 37.0001C63.2303 37.021 63.3351 37.0627 63.419 37.0835C63.5029 37.1044 63.6078 37.1461 63.6917 37.167C63.7756 37.1878 63.8804 37.2087 63.9853 37.2295C64.0692 37.2504 64.1741 37.2713 64.2789 37.2921C64.3838 37.313 64.4677 37.3338 64.5725 37.3547C64.6774 37.3755 64.7613 37.3964 64.8661 37.4173C64.971 37.4381 65.0549 37.459 65.1598 37.459C65.2646 37.4798 65.3695 37.4798 65.4534 37.5007C65.5582 37.5215 65.6631 37.5215 65.747 37.5424C65.8519 37.5633 65.9567 37.5633 66.0616 37.5633C66.1664 37.5633 66.2713 37.5841 66.3762 37.5841C66.481 37.5841 66.5859 37.605 66.6908 37.605C66.7956 37.605 66.9005 37.605 67.0054 37.6258C67.1102 37.6258 67.2151 37.6258 67.3199 37.6258C67.4248 37.6258 67.5297 37.6258 67.6345 37.6258C67.7394 37.6258 67.8443 37.6258 67.9701 37.6258C68.075 37.6258 68.1798 37.6258 68.3057 37.605C68.4105 37.605 68.5154 37.605 68.6412 37.5841C68.7461 37.5841 68.8719 37.5633 68.9768 37.5633C69.1026 37.5633 69.2075 37.5424 69.3123 37.5215C69.4382 37.5007 69.543 37.4798 69.6689 37.4798C69.7947 37.459 69.8996 37.4381 70.0254 37.4173C70.1512 37.3964 70.2561 37.3755 70.3819 37.3547C70.5078 37.3338 70.6336 37.2921 70.7385 37.2713C70.8643 37.2295 70.9901 37.2087 71.116 37.167C71.2418 37.1252 71.3676 37.0835 71.4935 37.0418C71.6193 37.0001 71.7451 36.9584 71.892 36.9167C72.0178 36.875 72.1646 36.8124 72.2904 36.7498C72.4372 36.6872 72.5841 36.6247 72.7099 36.5621C72.8567 36.4995 73.0035 36.4369 73.1503 36.3535C73.2971 36.2701 73.4439 36.2075 73.5907 36.1241C73.7585 36.0406 73.9053 35.9363 74.0521 35.8529C74.2199 35.7486 74.3877 35.6443 74.5555 35.54C74.7233 35.4149 74.912 35.2897 75.0798 35.1646C75.2685 35.0186 75.4573 34.8517 75.667 34.7057C75.8767 34.518 76.0865 34.3303 76.2962 34.1217C76.3801 34.0383 76.464 33.9548 76.5479 33.8923C76.7156 33.7254 76.8834 33.5377 77.0512 33.3708C77.4497 32.9119 77.8272 32.4322 78.1418 31.9525C78.5403 31.3684 78.8758 30.7427 79.1485 30.0961C79.3792 29.5538 79.5889 28.9906 79.7357 28.4066C79.8406 28.0729 79.9035 27.7183 79.9874 27.3637C80.0503 27.0926 80.0922 26.8005 80.1342 26.5085C80.1761 26.2582 80.1971 26.0288 80.2181 25.7785C80.239 25.5491 80.26 25.3405 80.26 25.1111C80.281 24.9025 80.281 24.6939 80.281 24.4853C80.281 24.4227 80.281 24.3602 80.281 24.2767C80.302 24.0473 80.302 23.9221 80.302 23.797ZM75.1008 24.4645C75.1008 24.6939 75.0798 24.9025 75.0798 25.1111C75.0588 25.3613 75.0378 25.6116 74.9959 25.8619C74.954 26.1748 74.891 26.4877 74.8071 26.8005C74.4506 28.198 73.8005 29.3869 72.8567 30.3673C72.8148 30.409 72.7728 30.4507 72.7309 30.4924C72.5631 30.6593 72.3743 30.847 72.1856 30.993C71.9968 31.139 71.829 31.285 71.6403 31.431C71.4725 31.5353 71.3047 31.6605 71.1369 31.7647C70.9901 31.8482 70.8433 31.9316 70.6755 32.015C70.5287 32.0776 70.3819 32.161 70.2351 32.2236C70.1093 32.2862 69.9625 32.3279 69.8157 32.3905C69.6898 32.4322 69.564 32.4739 69.4172 32.5156C69.2914 32.5573 69.1655 32.5991 69.0397 32.6199C68.9139 32.6616 68.788 32.6825 68.6622 32.7034C68.5363 32.7242 68.4315 32.7451 68.3057 32.7659C68.1798 32.7868 68.075 32.8076 67.9491 32.8076C67.8443 32.8285 67.7184 32.8285 67.6136 32.8494C67.5087 32.8494 67.3829 32.8702 67.278 32.8702C67.1731 32.8702 67.0683 32.8911 66.9424 32.8911C66.8585 32.8911 66.7956 32.8911 66.7117 32.8911H66.6069C66.502 32.8911 66.3971 32.8911 66.2923 32.8911C66.1874 32.8911 66.0826 32.8911 65.9777 32.8702C65.8728 32.8702 65.768 32.8494 65.6631 32.8494C65.5582 32.8494 65.4534 32.8285 65.3695 32.8076C65.2646 32.7868 65.1807 32.7659 65.0759 32.7659C64.971 32.7451 64.8871 32.7242 64.7823 32.7034C64.6984 32.6825 64.5935 32.6616 64.4886 32.6408C64.4048 32.6199 64.2999 32.5991 64.216 32.5574C64.1321 32.5365 64.0272 32.4948 63.9434 32.4739C63.8595 32.4531 63.7546 32.4113 63.6707 32.3696C63.5868 32.3279 63.5029 32.3071 63.419 32.2653C63.3351 32.2236 63.2513 32.1819 63.1674 32.1402C63.0835 32.0985 62.9996 32.0568 62.9157 32.015C62.8318 31.9733 62.7479 31.9316 62.664 31.8899C62.5801 31.8482 62.4963 31.7856 62.4124 31.7439C62.3285 31.7022 62.2446 31.6396 62.1817 31.5979C62.1187 31.5562 62.0139 31.4936 61.951 31.431C61.8671 31.3684 61.8042 31.3267 61.7203 31.2642C61.6364 31.2016 61.5735 31.139 61.4896 31.0764C61.4057 31.0139 61.3428 30.9513 61.2589 30.8887C61.175 30.8261 61.1121 30.7636 61.0491 30.701C60.9862 30.6384 60.9023 30.5758 60.8394 30.4924C60.7765 30.4298 60.6926 30.3464 60.6297 30.2838C60.5668 30.2213 60.4829 30.1378 60.42 30.0752C60.357 29.9918 60.2941 29.9292 60.2102 29.8458C60.1473 29.7624 60.0844 29.6789 60.0215 29.6164C59.9586 29.5329 59.8956 29.4495 59.8327 29.3661C59.7698 29.2826 59.7069 29.1992 59.644 29.1158C59.5811 29.0324 59.5181 28.9281 59.4762 28.8446C59.4133 28.7403 59.3713 28.6569 59.3084 28.5526C59.2455 28.4483 59.2036 28.344 59.1406 28.2397C59.0987 28.1355 59.0358 28.0312 58.9938 27.9269C58.9519 27.8226 58.889 27.6974 58.847 27.5932C58.8051 27.468 58.7631 27.3637 58.7212 27.2386C58.6792 27.1134 58.6373 26.9883 58.5953 26.8631C58.5534 26.738 58.5324 26.592 58.4905 26.4668C58.4695 26.3208 58.4276 26.1748 58.4066 26.0288C58.3856 25.8828 58.3647 25.7159 58.3437 25.5699C58.3227 25.4031 58.3017 25.2362 58.3017 25.0693C58.2808 24.8816 58.2808 24.7147 58.2808 24.527C58.2808 24.4436 58.2808 24.3602 58.2808 24.2767C58.2808 24.1516 58.2808 24.0264 58.2808 23.9221C58.2808 23.6927 58.3017 23.4633 58.3227 23.2547C58.3437 22.9835 58.3856 22.7332 58.4276 22.4621C58.4905 22.0866 58.5744 21.7321 58.7002 21.3775C59.0148 20.3971 59.4972 19.5003 60.1473 18.7077C60.357 18.4574 60.5668 18.2279 60.7975 17.9985C60.8394 17.9568 60.8604 17.9359 60.9023 17.8942C61.0911 17.7065 61.3008 17.5396 61.5105 17.3727C61.6783 17.2267 61.8671 17.1016 62.0558 16.9764C62.2236 16.8722 62.3704 16.7679 62.5382 16.6636C62.685 16.5801 62.8318 16.4967 62.9996 16.4133C63.1464 16.3507 63.2932 16.2673 63.419 16.2047C63.5658 16.1421 63.6917 16.1004 63.8385 16.0378C63.9643 15.9961 64.0902 15.9544 64.237 15.9127C64.3628 15.871 64.4886 15.8293 64.6145 15.8084C64.7403 15.7667 64.8661 15.7458 64.992 15.725C65.1178 15.7041 65.2227 15.6832 65.3485 15.6624C65.4744 15.6415 65.5792 15.6207 65.705 15.6207C65.8099 15.5998 65.9357 15.5998 66.0406 15.579C66.1455 15.579 66.2713 15.5581 66.3762 15.5581C66.481 15.5581 66.5859 15.5581 66.6908 15.5581H66.7117C66.8166 15.5581 66.9215 15.5581 67.0263 15.5581C67.1312 15.5581 67.236 15.5581 67.3409 15.579C67.4458 15.579 67.5506 15.5998 67.6555 15.5998C67.7604 15.5998 67.8652 15.6207 67.9491 15.6207C68.033 15.6207 68.1588 15.6415 68.2427 15.6624C68.3476 15.6832 68.4315 15.7041 68.5363 15.7041C68.6412 15.725 68.7251 15.7458 68.83 15.7667C68.9348 15.7875 69.0187 15.8084 69.1026 15.8501C69.1865 15.871 69.2914 15.8918 69.3752 15.9335C69.4591 15.9544 69.564 15.9961 69.6479 16.017C69.7318 16.0378 69.8366 16.0795 69.9205 16.1213C70.0044 16.163 70.1093 16.1838 70.1932 16.2256C70.2771 16.2673 70.361 16.309 70.4448 16.3507C70.5287 16.3924 70.6126 16.4341 70.6965 16.4758C70.7804 16.5176 70.8643 16.5593 70.9482 16.6219C71.0321 16.6636 71.116 16.7261 71.1999 16.7679C71.2838 16.8096 71.3676 16.8721 71.4306 16.9139C71.5145 16.9556 71.5774 17.0182 71.6613 17.0807C71.7452 17.1433 71.8081 17.185 71.892 17.2476C71.9758 17.3102 72.0388 17.3727 72.1227 17.4353C72.1856 17.4979 72.2695 17.5605 72.3324 17.623C72.3953 17.6856 72.4792 17.7482 72.5421 17.8316C72.5841 17.8733 72.605 17.8942 72.647 17.9359C72.6889 17.9776 72.7099 17.9985 72.7518 18.0402C72.8148 18.1028 72.8986 18.1862 72.9616 18.2488C73.0245 18.3322 73.0874 18.3948 73.1503 18.4782C73.2132 18.5616 73.2761 18.6451 73.3391 18.7285C73.402 18.8119 73.4649 18.8954 73.5278 18.9788C73.5907 19.0622 73.6537 19.1457 73.6956 19.25C73.7585 19.3334 73.8005 19.4377 73.8634 19.542C73.9263 19.6463 73.9682 19.7297 74.0312 19.834C74.0941 19.9383 74.136 20.0426 74.178 20.1469C74.2199 20.2511 74.2828 20.3554 74.3248 20.4806C74.3667 20.5849 74.4087 20.71 74.4506 20.8352C74.4926 20.9603 74.5345 21.0855 74.5764 21.2106C74.6184 21.3358 74.6603 21.4609 74.6813 21.6069C74.7233 21.7529 74.7442 21.8781 74.7862 22.0241C74.8071 22.1701 74.8491 22.3161 74.8701 22.4621C74.891 22.6081 74.912 22.775 74.933 22.9418C74.954 23.1087 74.9749 23.2755 74.9749 23.4424C74.9959 23.6301 74.9959 23.797 74.9959 23.9847C74.9959 24.089 74.9959 24.1933 74.9959 24.2976C75.1008 24.2767 75.1008 24.3602 75.1008 24.4645Z" fill="white"/>
<path d="M148.065 11.4707C148.002 11.4707 147.96 11.4707 147.897 11.4707C147.792 11.4707 147.667 11.4916 147.562 11.5124C147.436 11.5333 147.31 11.5541 147.184 11.5959C147.037 11.6376 146.912 11.7001 146.765 11.7627C146.597 11.8461 146.429 11.9504 146.282 12.0547C145.632 12.5553 145.192 13.3062 145.129 14.1614C145.129 14.224 145.129 14.3074 145.129 14.37V36.8549H147.541C147.562 36.8549 147.604 36.8549 147.625 36.8549C147.75 36.8549 147.855 36.834 147.96 36.834C148.086 36.8131 148.212 36.7923 148.317 36.7506C148.464 36.7089 148.589 36.6671 148.715 36.6046C148.883 36.542 149.03 36.4586 149.177 36.3543C149.428 36.1874 149.638 35.9997 149.806 35.7702C150.036 35.4991 150.225 35.1654 150.33 34.8108C150.414 34.5396 150.456 34.2685 150.456 33.9765C150.456 33.9556 150.456 33.9556 150.456 33.9347V11.4707H148.065Z" fill="white"/>
<path d="M151.186 3.60846C151.186 3.4416 151.165 3.27474 151.123 3.12873C151.102 2.98273 151.06 2.85758 151.018 2.73243C150.976 2.60728 150.934 2.50299 150.872 2.3987C150.83 2.29441 150.767 2.19012 150.704 2.10669C150.641 2.02326 150.599 1.93983 150.515 1.85639C150.452 1.77296 150.389 1.68953 150.326 1.62696C150.284 1.58524 150.242 1.54352 150.2 1.50181C150.179 1.48095 150.138 1.43924 150.117 1.41838C150.054 1.3558 149.97 1.29323 149.907 1.23066C149.823 1.16808 149.76 1.10551 149.676 1.06379C149.592 1.02208 149.508 0.959502 149.424 0.917786C149.341 0.87607 149.257 0.834354 149.173 0.792638C149.089 0.750922 148.984 0.730064 148.9 0.688348C148.816 0.646632 148.711 0.625774 148.628 0.604916C148.523 0.584058 148.439 0.5632 148.334 0.542342C148.229 0.521484 148.124 0.521484 148.019 0.521484C147.935 0.521484 147.852 0.521484 147.789 0.521484C147.768 0.521484 147.726 0.521484 147.705 0.521484C147.6 0.521484 147.474 0.521484 147.369 0.542342C147.243 0.5632 147.138 0.5632 147.013 0.584058C146.887 0.604916 146.761 0.646632 146.635 0.66749C146.488 0.709206 146.362 0.77178 146.237 0.834354C146.069 0.917786 145.922 1.00122 145.775 1.10551C145.607 1.2098 145.461 1.33495 145.314 1.48095C145.251 1.54352 145.209 1.58524 145.146 1.64781C144.81 2.04412 144.559 2.46128 144.433 2.94101C144.37 3.1913 144.328 3.46246 144.328 3.73361C144.328 3.75447 144.328 3.79619 144.328 3.8379C144.328 4.00477 144.328 4.15077 144.349 4.29678C144.37 4.44278 144.391 4.58879 144.433 4.7348C144.454 4.85994 144.496 4.98509 144.559 5.11024C144.601 5.21453 144.664 5.31882 144.706 5.42311C144.748 5.5274 144.81 5.61083 144.873 5.69426C144.936 5.77769 144.999 5.86112 145.062 5.94456C145.125 6.00713 145.188 6.09056 145.272 6.15314C145.293 6.17399 145.293 6.174 145.314 6.19485C145.377 6.25743 145.44 6.29914 145.503 6.36172C145.586 6.42429 145.649 6.48686 145.733 6.52858C145.817 6.59115 145.901 6.63287 145.964 6.67459C146.048 6.7163 146.132 6.75802 146.216 6.79973C146.3 6.84145 146.383 6.86231 146.488 6.90402C146.572 6.94574 146.677 6.9666 146.761 6.98746C146.866 7.00831 146.95 7.02917 147.055 7.05003C147.159 7.07089 147.243 7.09175 147.348 7.09175C147.453 7.1126 147.558 7.1126 147.663 7.1126C147.705 7.1126 147.747 7.1126 147.789 7.1126C147.852 7.1126 147.914 7.1126 147.998 7.1126C148.103 7.1126 148.229 7.09175 148.334 7.09175C148.46 7.07089 148.565 7.05003 148.69 7.02917C148.816 7.00831 148.942 6.9666 149.068 6.92488C149.215 6.88317 149.362 6.82059 149.487 6.73716C149.655 6.65373 149.823 6.52858 149.991 6.40343C150.075 6.34086 150.159 6.25743 150.242 6.19485C150.788 5.6734 151.102 5.00595 151.186 4.2342C151.207 4.10906 151.207 3.98391 151.207 3.8379C151.186 3.77533 151.186 3.6919 151.186 3.60846Z" fill="white"/>
<path d="M139.802 21.002C139.802 20.8143 139.781 20.6474 139.781 20.4597C139.76 20.2929 139.76 20.126 139.739 19.9591C139.718 19.7923 139.697 19.6254 139.676 19.4794C139.655 19.3334 139.634 19.1665 139.592 19.0205C139.571 18.8745 139.529 18.7285 139.508 18.5825C139.487 18.4365 139.445 18.3114 139.403 18.1653C139.361 18.0402 139.34 17.9151 139.298 17.769C139.256 17.6439 139.214 17.5188 139.172 17.3936C139.131 17.2685 139.089 17.1433 139.047 17.039C139.005 16.9139 138.963 16.8096 138.921 16.7053C138.879 16.601 138.816 16.4759 138.774 16.3716C138.732 16.2673 138.669 16.163 138.627 16.0587C138.585 15.9544 138.522 15.8501 138.459 15.7667C138.396 15.6624 138.355 15.579 138.292 15.4747C138.229 15.3704 138.187 15.2869 138.124 15.2035C138.061 15.1201 138.019 15.0158 137.956 14.9324C137.893 14.8489 137.83 14.7655 137.767 14.6821C137.704 14.5986 137.641 14.5152 137.579 14.4318C137.516 14.3483 137.453 14.2649 137.39 14.2023C137.327 14.1189 137.264 14.0563 137.201 13.9729C137.138 13.8895 137.075 13.8269 136.991 13.7435C136.928 13.66 136.845 13.5975 136.782 13.5349C136.719 13.4723 136.635 13.3889 136.572 13.3263C136.509 13.2637 136.425 13.2011 136.362 13.1386C136.278 13.076 136.215 13.0134 136.131 12.9509C136.048 12.8883 135.985 12.8257 135.901 12.7631C135.817 12.7006 135.754 12.6588 135.67 12.5963C135.586 12.5337 135.523 12.492 135.439 12.4294C135.355 12.3668 135.272 12.3251 135.209 12.2625C135.125 12.2208 135.041 12.1582 134.957 12.1165C134.873 12.0748 134.789 12.0122 134.705 11.9705C134.621 11.9288 134.538 11.8871 134.454 11.8454C134.37 11.8037 134.286 11.7619 134.202 11.7202C134.118 11.6785 134.034 11.6368 133.95 11.5951C133.866 11.5534 133.783 11.5117 133.699 11.4908C133.615 11.4491 133.531 11.4282 133.426 11.3865C133.342 11.3448 133.237 11.3239 133.153 11.2822C133.069 11.2614 132.965 11.2196 132.881 11.1988C132.797 11.1779 132.692 11.1362 132.608 11.1154C132.524 11.0945 132.419 11.0736 132.335 11.0528C132.231 11.0319 132.147 11.0111 132.042 10.9902C131.937 10.9693 131.853 10.9485 131.748 10.9276C131.643 10.9068 131.559 10.8859 131.455 10.8859C131.35 10.8651 131.266 10.8651 131.161 10.8442C131.056 10.8233 130.951 10.8233 130.867 10.8025C130.762 10.7816 130.658 10.7816 130.553 10.7816C130.448 10.7816 130.343 10.7608 130.238 10.7608C130.133 10.7608 130.028 10.7608 129.924 10.7399C129.819 10.7399 129.714 10.7399 129.609 10.7399H129.588C129.483 10.7399 129.378 10.7399 129.273 10.7399C129.169 10.7399 129.064 10.7399 128.938 10.7399C128.833 10.7399 128.728 10.7399 128.602 10.7608C128.497 10.7608 128.372 10.7816 128.267 10.7816C128.162 10.7816 128.036 10.8025 127.931 10.8025C127.826 10.8233 127.7 10.8233 127.596 10.8442C127.47 10.8651 127.365 10.8859 127.239 10.8859C127.113 10.9068 127.008 10.9276 126.883 10.9485C126.757 10.9693 126.631 10.9902 126.526 11.0319C126.4 11.0528 126.274 11.0945 126.149 11.1154C126.023 11.1571 125.897 11.1779 125.771 11.2196C125.645 11.2614 125.519 11.3031 125.373 11.3448C125.247 11.3865 125.1 11.4491 124.974 11.4908C124.827 11.5534 124.701 11.5951 124.555 11.6577C124.408 11.7202 124.261 11.7828 124.114 11.8662C123.967 11.9497 123.821 12.0122 123.674 12.0957C123.506 12.1791 123.359 12.2834 123.191 12.3668C123.024 12.4711 122.856 12.5754 122.688 12.7006C122.499 12.8257 122.311 12.9717 122.143 13.1177C121.933 13.2846 121.723 13.4723 121.535 13.66C121.262 13.9103 121.01 14.1815 120.78 14.4526C120.759 14.4735 120.738 14.4943 120.717 14.5152V-0.00195312H118.284C118.2 -0.00195312 118.095 -0.00195312 118.011 0.0189049C117.885 0.0397628 117.78 0.0397628 117.655 0.0606208C117.529 0.0814788 117.403 0.123195 117.277 0.164911C117.13 0.206627 116.984 0.290059 116.858 0.352633C116.669 0.456922 116.48 0.58207 116.333 0.728076C115.83 1.16609 115.494 1.77098 115.39 2.48015C115.369 2.62615 115.348 2.77216 115.348 2.91816V33.9966C115.348 34.1634 115.369 34.3303 115.39 34.4971C115.411 34.6432 115.453 34.7683 115.494 34.8934C115.536 35.0186 115.578 35.1229 115.62 35.2272C115.662 35.3315 115.725 35.4358 115.788 35.5192C115.851 35.6026 115.914 35.6861 115.977 35.7695C116.04 35.8529 116.103 35.9155 116.166 35.9989C116.229 36.0615 116.312 36.1241 116.375 36.1866C116.459 36.2492 116.522 36.3118 116.606 36.3535C116.69 36.3952 116.774 36.4578 116.858 36.4995C116.942 36.5412 117.025 36.5829 117.109 36.6247C117.193 36.6664 117.277 36.6872 117.382 36.729C117.466 36.7498 117.571 36.7707 117.655 36.7915C117.759 36.8124 117.843 36.8332 117.948 36.8332C118.053 36.8332 118.158 36.8541 118.263 36.8541H120.675V25.1319C120.675 24.9859 120.675 24.8399 120.675 24.6939C120.675 24.4853 120.675 24.2559 120.696 24.0473C120.717 23.8179 120.717 23.5884 120.738 23.359C120.759 23.0878 120.801 22.8375 120.821 22.5872C120.863 22.2744 120.926 21.9824 120.989 21.6903C121.094 21.2523 121.199 20.8352 121.346 20.4389C121.66 19.5628 122.059 18.8119 122.583 18.1653C122.625 18.1236 122.667 18.0819 122.688 18.0402C122.898 17.7899 123.107 17.5813 123.338 17.3727C123.527 17.2059 123.716 17.0599 123.904 16.9139C124.072 16.7887 124.24 16.6844 124.408 16.5801C124.555 16.4967 124.701 16.4133 124.869 16.3507C125.016 16.2881 125.142 16.2256 125.289 16.163C125.414 16.1213 125.561 16.0587 125.687 16.017C125.813 15.9753 125.939 15.9335 126.065 15.8918C126.19 15.871 126.316 15.8293 126.442 15.8084C126.568 15.7875 126.673 15.7667 126.799 15.7458C126.904 15.725 127.029 15.7041 127.155 15.7041C127.26 15.6832 127.386 15.6832 127.491 15.6624C127.596 15.6624 127.721 15.6415 127.826 15.6415C127.931 15.6415 128.036 15.6415 128.162 15.6415C128.204 15.6415 128.246 15.6415 128.288 15.6415C128.351 15.6415 128.414 15.6415 128.476 15.6415C128.581 15.6415 128.686 15.6415 128.791 15.6624C128.896 15.6624 129.001 15.6832 129.106 15.6832C129.211 15.6832 129.315 15.7041 129.399 15.725C129.504 15.7458 129.588 15.7667 129.693 15.7875C129.798 15.8084 129.882 15.8293 129.986 15.8501C130.091 15.871 130.175 15.8918 130.259 15.9335C130.343 15.9753 130.448 15.9961 130.532 16.0378C130.616 16.0795 130.721 16.1004 130.804 16.1421C130.888 16.1838 130.972 16.2256 131.056 16.2673C131.14 16.309 131.224 16.3507 131.308 16.3924C131.392 16.4341 131.476 16.4967 131.538 16.5384C131.622 16.5801 131.706 16.6427 131.769 16.7053C131.853 16.7679 131.916 16.8096 132 16.8722C132.084 16.9347 132.147 16.9973 132.21 17.0599C132.273 17.1224 132.356 17.185 132.419 17.2685C132.482 17.331 132.566 17.4145 132.629 17.477C132.65 17.4979 132.671 17.5188 132.671 17.5396C132.713 17.6022 132.776 17.6439 132.818 17.7065C132.881 17.7899 132.944 17.8733 133.007 17.9568C133.069 18.0402 133.132 18.1236 133.195 18.2071C133.258 18.2905 133.321 18.3948 133.363 18.4782C133.426 18.5825 133.468 18.6659 133.531 18.7702C133.594 18.8745 133.636 18.9788 133.678 19.0831C133.72 19.1874 133.783 19.3125 133.824 19.4168C133.866 19.542 133.908 19.6463 133.95 19.7714C133.992 19.8966 134.034 20.0217 134.055 20.1469C134.097 20.272 134.118 20.418 134.16 20.564C134.202 20.71 134.223 20.856 134.244 21.002C134.265 21.1689 134.286 21.3149 134.307 21.4818C134.328 21.6486 134.328 21.8155 134.349 22.0032C134.349 22.1701 134.37 22.3369 134.37 22.5247V36.8124H139.781V21.4401C139.823 21.3358 139.823 21.1689 139.802 21.002Z" fill="white"/>
<path d="M107.754 11.4703C107.712 11.4703 107.67 11.4703 107.607 11.4703C107.502 11.4703 107.376 11.4911 107.271 11.512C107.146 11.5328 107.02 11.5537 106.894 11.5954C106.747 11.6371 106.621 11.6997 106.474 11.7623C106.307 11.8457 106.139 11.9291 105.992 12.0543C105.636 12.3046 105.363 12.6383 105.153 13.0138C104.943 13.3892 104.818 13.8064 104.797 14.2444C104.797 14.2861 104.797 14.3487 104.797 14.3904C104.776 14.3695 104.755 14.3487 104.755 14.3487C104.692 14.2861 104.608 14.2027 104.545 14.1401C104.482 14.0775 104.398 13.9941 104.335 13.9315C104.272 13.8689 104.188 13.8064 104.126 13.7229C104.042 13.6604 103.979 13.5978 103.916 13.5352C103.832 13.4726 103.769 13.4101 103.685 13.3475C103.601 13.2849 103.538 13.2223 103.454 13.1806C103.371 13.118 103.308 13.0763 103.224 13.0138C103.14 12.9512 103.077 12.9095 102.993 12.8469C102.909 12.7843 102.825 12.7426 102.762 12.68C102.678 12.6383 102.595 12.5757 102.532 12.534C102.448 12.4923 102.364 12.4297 102.28 12.388C102.196 12.3463 102.112 12.2837 102.028 12.242C101.944 12.2003 101.861 12.1586 101.777 12.1169C101.693 12.0751 101.609 12.0334 101.525 11.9917C101.441 11.95 101.357 11.9083 101.273 11.8666C101.189 11.8248 101.106 11.7831 101.022 11.7414C100.938 11.6997 100.854 11.6788 100.749 11.6371C100.665 11.5954 100.56 11.5746 100.476 11.5328C100.392 11.512 100.288 11.4703 100.204 11.4494C100.12 11.4077 100.015 11.3868 99.931 11.366C99.8472 11.3451 99.7423 11.3034 99.6584 11.2825C99.5745 11.2617 99.4696 11.22 99.3858 11.1991C99.2809 11.1783 99.197 11.1574 99.0921 11.1365C98.9873 11.1157 98.9034 11.0948 98.7985 11.074C98.6937 11.0531 98.6098 11.0322 98.5049 11.0114C98.4 10.9905 98.3162 10.9697 98.2113 10.9488C98.1064 10.928 98.0225 10.9071 97.9177 10.9071C97.8128 10.8862 97.708 10.8862 97.6241 10.8654C97.5192 10.8445 97.4143 10.8445 97.3304 10.8237C97.2256 10.8237 97.1207 10.8028 97.0159 10.8028C96.911 10.8028 96.8061 10.782 96.7013 10.782C96.5964 10.782 96.4915 10.7611 96.3867 10.7611C96.2818 10.7611 96.177 10.7402 96.0721 10.7402C95.9672 10.7402 95.8624 10.7402 95.7575 10.7402C95.6946 10.7402 95.6107 10.7402 95.5478 10.7402C95.5058 10.7402 95.4639 10.7402 95.4429 10.7402C95.3381 10.7402 95.2332 10.7402 95.1074 10.7402C95.0025 10.7402 94.8976 10.7402 94.7718 10.7611C94.6669 10.7611 94.5411 10.782 94.4362 10.782C94.3314 10.782 94.2055 10.8028 94.1007 10.8028C93.9748 10.8237 93.87 10.8237 93.7651 10.8445C93.6393 10.8654 93.5344 10.8862 93.4086 10.9071C93.2827 10.928 93.1779 10.9488 93.052 10.9697C92.9262 10.9905 92.8004 11.0114 92.6745 11.0531C92.5487 11.074 92.4229 11.1157 92.297 11.1365C92.1712 11.1783 92.0454 11.1991 91.9195 11.2408C91.7937 11.2825 91.6679 11.3243 91.521 11.366C91.3952 11.4077 91.2484 11.4494 91.1226 11.512C90.9758 11.5537 90.8499 11.6163 90.7031 11.6788C90.5563 11.7414 90.4095 11.804 90.2837 11.8666C90.1369 11.9291 89.99 12.0126 89.8432 12.096C89.6964 12.1794 89.5287 12.2629 89.3818 12.3463C89.2141 12.4506 89.0463 12.534 88.8995 12.6383C88.7317 12.7426 88.5639 12.8677 88.3752 12.9929C88.1864 13.118 87.9977 13.264 87.8299 13.4101C87.6201 13.5769 87.4314 13.7438 87.2217 13.9315C87.0119 14.1192 86.8232 14.3069 86.6135 14.5155C86.5925 14.5364 86.5715 14.5572 86.5505 14.5781C86.2569 14.8701 85.9843 15.183 85.7326 15.4959C84.7679 16.7056 84.0338 18.0405 83.5515 19.5006C83.4256 19.8969 83.3208 20.2932 83.2159 20.6895C83.153 20.9815 83.0901 21.2944 83.0481 21.6072C83.0062 21.8575 82.9642 22.1287 82.9433 22.379C82.9223 22.6084 82.9013 22.8379 82.8803 23.0882C82.8594 23.2967 82.8594 23.5053 82.8594 23.7348C82.8594 23.8599 82.8594 24.0059 82.8594 24.1311C82.8594 24.1936 82.8594 24.2562 82.8594 24.3396C82.8594 24.5274 82.8594 24.7151 82.8803 24.9028C82.8803 25.0905 82.9013 25.2574 82.9013 25.4451C82.9223 25.612 82.9223 25.7997 82.9433 25.9666C82.9642 26.1334 82.9852 26.2794 83.0062 26.4463C83.0272 26.6132 83.0481 26.7592 83.0691 26.9052C83.0901 27.0512 83.111 27.1972 83.153 27.3432C83.174 27.4892 83.2159 27.6352 83.2369 27.7603C83.2579 27.9063 83.2998 28.0315 83.3417 28.1775C83.3837 28.3026 83.4047 28.4278 83.4466 28.5738C83.4885 28.6989 83.5305 28.8241 83.5724 28.9492C83.6144 29.0744 83.6563 29.1995 83.6983 29.3038C83.7402 29.429 83.7822 29.5333 83.8241 29.6584C83.8661 29.7627 83.908 29.8879 83.9709 29.9921C84.0129 30.0964 84.0758 30.2007 84.1177 30.305C84.1597 30.4093 84.2226 30.5136 84.2645 30.6179C84.3065 30.7222 84.3694 30.8265 84.4323 30.9308C84.4743 31.035 84.5372 31.1185 84.6001 31.2228C84.663 31.3271 84.705 31.4105 84.7679 31.5148C84.8308 31.5982 84.8727 31.7025 84.9357 31.7859C84.9986 31.8694 85.0615 31.9528 85.1244 32.0571C85.1873 32.1405 85.2502 32.2239 85.3132 32.3074C85.3761 32.3908 85.439 32.4742 85.5019 32.5577C85.5648 32.6411 85.6278 32.7245 85.6907 32.808C85.7536 32.8914 85.8165 32.9748 85.8794 33.0374C85.9423 33.1208 86.0053 33.1834 86.0682 33.2668C86.1311 33.3503 86.194 33.4129 86.2779 33.4963C86.3408 33.5797 86.4037 33.6423 86.4876 33.7049C86.5296 33.7466 86.5505 33.7883 86.5925 33.8092C86.6344 33.8509 86.6554 33.8717 86.6974 33.9134C86.7603 33.976 86.8442 34.0595 86.9071 34.122C86.97 34.1846 87.0539 34.2472 87.1168 34.3306C87.2007 34.3932 87.2636 34.4557 87.3265 34.5183C87.4104 34.5809 87.4733 34.6435 87.5572 34.706C87.6411 34.7686 87.704 34.8312 87.7879 34.8938C87.8718 34.9563 87.9347 35.0189 88.0186 35.0815C88.1025 35.1441 88.1654 35.1858 88.2493 35.2484C88.3332 35.3109 88.3961 35.3526 88.48 35.4152C88.5639 35.4778 88.6478 35.5195 88.7107 35.5821C88.7946 35.6238 88.8785 35.6864 88.9414 35.7281C89.0253 35.7698 89.1092 35.8324 89.1721 35.8741C89.256 35.9158 89.3399 35.9784 89.4238 36.0201C89.5077 36.0618 89.5916 36.1244 89.6755 36.1661C89.7593 36.2078 89.8432 36.2495 89.9271 36.2913C90.011 36.333 90.0949 36.3747 90.1788 36.4164C90.2627 36.4581 90.3466 36.4998 90.4305 36.5415C90.5144 36.5833 90.5982 36.625 90.6821 36.6458C90.766 36.6876 90.8499 36.7084 90.9338 36.7501C91.0177 36.7918 91.1226 36.8127 91.2065 36.8544C91.2903 36.8961 91.3952 36.917 91.4791 36.9587C91.563 37.0004 91.6679 37.0213 91.7517 37.0421C91.8356 37.063 91.9405 37.1047 92.0244 37.1256C92.1083 37.1464 92.2131 37.1673 92.297 37.209C92.3809 37.2299 92.4858 37.2507 92.5906 37.2716C92.6955 37.2924 92.7794 37.3133 92.8843 37.3342C92.9891 37.355 93.073 37.3759 93.1779 37.3967C93.2827 37.4176 93.3666 37.4384 93.4715 37.4384C93.5764 37.4593 93.6602 37.4802 93.7651 37.4802C93.87 37.501 93.9748 37.501 94.0797 37.5219C94.1846 37.5219 94.2894 37.5427 94.3943 37.5427C94.4992 37.5427 94.604 37.5636 94.7089 37.5636C94.8137 37.5636 94.9186 37.5844 95.0235 37.5844C95.1283 37.5844 95.2332 37.5844 95.3381 37.5844C95.401 37.5844 95.4639 37.5844 95.5268 37.5844C95.5687 37.5844 95.6107 37.5844 95.6526 37.5844C95.7575 37.5844 95.8624 37.5844 95.9672 37.5844C96.0721 37.5844 96.177 37.5844 96.3028 37.5636C96.4077 37.5636 96.5335 37.5636 96.6383 37.5427C96.7432 37.5427 96.869 37.5219 96.9739 37.5219C97.0788 37.5219 97.2046 37.501 97.3095 37.4802C97.4353 37.4593 97.5402 37.4593 97.645 37.4384C97.7709 37.4176 97.8757 37.3967 98.0016 37.3967C98.1274 37.3759 98.2323 37.355 98.3581 37.3342C98.4839 37.3133 98.6098 37.2924 98.7146 37.2716C98.8405 37.2507 98.9663 37.2299 99.0712 37.1881C99.197 37.1673 99.3228 37.1256 99.4487 37.0839C99.5745 37.0421 99.7003 37.0213 99.8262 36.9796C99.952 36.9378 100.078 36.8961 100.225 36.8544C100.35 36.8127 100.497 36.771 100.623 36.7084C100.77 36.6667 100.896 36.6041 101.043 36.5415C101.189 36.479 101.336 36.4164 101.462 36.3538C101.609 36.2913 101.756 36.2078 101.902 36.1244C102.07 36.041 102.217 35.9575 102.364 35.8532C102.532 35.7489 102.699 35.6447 102.846 35.5404C103.014 35.4152 103.203 35.2901 103.371 35.1649C103.559 35.0189 103.748 34.8729 103.937 34.706C104.168 34.5183 104.377 34.3097 104.587 34.1012C104.65 34.0386 104.692 33.9969 104.755 33.9343C104.755 34.0803 104.755 34.2055 104.776 34.3306C104.797 34.4766 104.818 34.6226 104.86 34.7478C104.902 34.8729 104.943 34.9772 104.985 35.1023C105.027 35.2066 105.09 35.3109 105.132 35.4152C105.195 35.4986 105.237 35.6029 105.321 35.6864C105.384 35.7698 105.447 35.8532 105.51 35.9158C105.573 35.9784 105.636 36.0618 105.719 36.1244C105.782 36.187 105.866 36.2495 105.95 36.3121C106.034 36.3747 106.118 36.4164 106.181 36.4581C106.265 36.4998 106.349 36.5415 106.433 36.5833C106.516 36.625 106.6 36.6667 106.705 36.6876C106.789 36.7293 106.894 36.7501 106.978 36.771C107.083 36.7918 107.167 36.8127 107.271 36.8336C107.376 36.8544 107.481 36.8544 107.586 36.8544C107.607 36.8544 107.649 36.8544 107.67 36.8544H110.082V11.4703H107.754ZM104.818 24.3396C104.818 24.5482 104.818 24.7777 104.797 24.9862C104.776 25.2365 104.755 25.4868 104.713 25.7371C104.671 26.05 104.608 26.3629 104.524 26.6757C104.188 27.9689 103.58 29.0953 102.678 30.0756C102.553 30.2007 102.427 30.3259 102.301 30.451C102.196 30.5553 102.091 30.6387 101.986 30.743C101.798 30.9099 101.609 31.0768 101.399 31.2228C101.231 31.3479 101.043 31.4731 100.875 31.5982C100.707 31.7025 100.56 31.8068 100.392 31.8902C100.246 31.9736 100.099 32.0571 99.952 32.1197C99.8052 32.1822 99.6794 32.2448 99.5326 32.3074C99.4067 32.37 99.2599 32.4117 99.1341 32.4534C99.0083 32.4951 98.8824 32.5368 98.7356 32.5785C98.6098 32.6202 98.4839 32.6411 98.3581 32.6828C98.2323 32.7037 98.1274 32.7454 98.0016 32.7663C97.8757 32.7871 97.7709 32.808 97.645 32.8288C97.5402 32.8497 97.4143 32.8497 97.3095 32.8705C97.2046 32.8705 97.0788 32.8914 96.9739 32.8914C96.869 32.8914 96.7642 32.9123 96.6383 32.9123C96.5754 32.9123 96.5125 32.9123 96.4286 32.9123C96.3867 32.9123 96.3447 32.9123 96.3028 32.9123C96.1979 32.9123 96.0931 32.9123 95.9882 32.9123C95.8833 32.9123 95.7785 32.8914 95.6736 32.8914C95.5688 32.8914 95.4639 32.8705 95.359 32.8705C95.2542 32.8705 95.1493 32.8497 95.0654 32.8288C94.9605 32.808 94.8557 32.808 94.7718 32.7871C94.6669 32.7663 94.583 32.7454 94.4782 32.7245C94.3733 32.7037 94.2894 32.6828 94.1846 32.662C94.0797 32.6411 93.9958 32.6202 93.8909 32.5785C93.8071 32.5577 93.7022 32.516 93.6183 32.4951C93.5344 32.4534 93.4295 32.4325 93.3457 32.3908C93.2618 32.3491 93.1779 32.3282 93.073 32.2865C92.9891 32.2448 92.9052 32.2031 92.8213 32.1822C92.7375 32.1405 92.6536 32.0988 92.5697 32.0571C92.4858 32.0154 92.4019 31.9737 92.318 31.9319C92.2341 31.8902 92.1502 31.8485 92.0663 31.7859C91.9824 31.7442 91.8985 31.6816 91.8356 31.6399C91.7517 31.5982 91.6678 31.5356 91.6049 31.4731C91.521 31.4313 91.4581 31.3688 91.3742 31.3062C91.2903 31.2436 91.2274 31.2019 91.1435 31.1393C91.0596 31.0768 90.9967 31.0142 90.9128 30.9516C90.8289 30.889 90.766 30.8265 90.7031 30.7639C90.6192 30.7013 90.5563 30.6387 90.4934 30.5553C90.4724 30.5345 90.4724 30.5345 90.4514 30.5136C90.3885 30.451 90.3466 30.3884 90.2837 30.3467C90.2207 30.2842 90.1578 30.2007 90.0739 30.1173C90.011 30.0339 89.9481 29.9713 89.8852 29.8879C89.8223 29.8044 89.7594 29.721 89.6964 29.6376C89.6335 29.5541 89.5706 29.4707 89.5077 29.3873C89.4448 29.3038 89.3818 29.1995 89.3399 29.1161C89.277 29.0327 89.235 28.9284 89.1721 28.8241C89.1092 28.7198 89.0673 28.6155 89.0043 28.5321C88.9624 28.4278 88.8995 28.3235 88.8575 28.2192C88.8156 28.1149 88.7527 27.9898 88.7107 27.8855C88.6688 27.7603 88.6268 27.6561 88.5849 27.5309C88.5429 27.4058 88.501 27.2806 88.459 27.1555C88.4171 27.0303 88.3752 26.8843 88.3542 26.7592C88.3122 26.6132 88.2913 26.488 88.2703 26.342C88.2493 26.196 88.2074 26.05 88.1864 25.8831C88.1654 25.7163 88.1445 25.5703 88.1235 25.4034C88.1025 25.2365 88.1025 25.0488 88.0815 24.8819C88.0606 24.6942 88.0606 24.5065 88.0606 24.3188V24.1936C88.0606 24.0268 88.0606 23.8599 88.0606 23.7139C88.0815 23.4845 88.0815 23.255 88.1025 23.0256C88.1235 22.7544 88.1654 22.4833 88.2074 22.233C88.2703 21.8784 88.3542 21.5238 88.459 21.1901C88.7946 20.0846 89.3189 19.1251 90.053 18.27C90.1788 18.124 90.3046 17.9988 90.4305 17.8737C90.5353 17.7694 90.6612 17.6651 90.766 17.5608C90.9548 17.3939 91.1435 17.2271 91.3533 17.0811C91.521 16.9559 91.6888 16.8308 91.8776 16.7265C92.0244 16.6222 92.1922 16.5388 92.339 16.4553C92.4858 16.3719 92.6326 16.3093 92.7794 16.2467C92.9262 16.1842 93.052 16.1216 93.1988 16.0799C93.3247 16.0382 93.4715 15.9756 93.5973 15.9339C93.7232 15.8922 93.849 15.8504 93.9748 15.8296C94.1007 15.7879 94.2265 15.767 94.3523 15.7461C94.4782 15.7253 94.583 15.7044 94.7089 15.6836C94.8347 15.6627 94.9396 15.6419 95.0654 15.621C95.1703 15.6001 95.2961 15.6001 95.401 15.5793C95.5058 15.5793 95.6317 15.5584 95.7365 15.5584C95.8414 15.5584 95.9463 15.5376 96.0721 15.5376C96.177 15.5376 96.2818 15.5376 96.3867 15.5376C96.4915 15.5376 96.5964 15.5376 96.7013 15.5376C96.8061 15.5376 96.911 15.5376 97.0159 15.5584C97.1207 15.5584 97.2256 15.5793 97.3304 15.5793C97.4353 15.5793 97.5192 15.6001 97.6241 15.621C97.7289 15.6419 97.8128 15.6419 97.9177 15.6627C98.0225 15.6836 98.1064 15.7044 98.2113 15.7253C98.2952 15.7461 98.4 15.767 98.5049 15.7879C98.5888 15.8087 98.6937 15.8296 98.7776 15.8713C98.8614 15.8922 98.9663 15.9339 99.0502 15.9547C99.1341 15.9756 99.239 16.0173 99.3228 16.059C99.4067 16.1007 99.4906 16.1216 99.5955 16.1633C99.6794 16.205 99.7633 16.2467 99.8472 16.2676C99.931 16.3093 100.015 16.351 100.099 16.3927C100.183 16.4345 100.267 16.4762 100.35 16.5179C100.434 16.5596 100.518 16.6013 100.602 16.6639C100.686 16.7056 100.77 16.7682 100.833 16.8099C100.917 16.8516 101.001 16.9142 101.064 16.9768C101.147 17.0185 101.21 17.0811 101.294 17.1436C101.378 17.2062 101.441 17.2479 101.525 17.3105C101.609 17.3731 101.672 17.4356 101.756 17.4982C101.84 17.5608 101.902 17.6234 101.986 17.6859C102.049 17.7485 102.133 17.8111 102.196 17.8737C102.217 17.8945 102.238 17.9154 102.259 17.9362C102.301 17.978 102.364 18.0197 102.406 18.0822C102.469 18.1448 102.553 18.2282 102.616 18.2908C102.678 18.3534 102.741 18.4368 102.825 18.5203C102.888 18.6037 102.951 18.6663 103.014 18.7497C103.077 18.8331 103.14 18.9166 103.203 19C103.266 19.0834 103.329 19.1669 103.392 19.2503C103.454 19.3337 103.517 19.438 103.559 19.5214C103.622 19.6049 103.685 19.7092 103.727 19.8135C103.79 19.9177 103.832 20.0012 103.895 20.1055C103.937 20.2098 104 20.314 104.042 20.4183C104.084 20.5226 104.147 20.6478 104.188 20.7521C104.23 20.8564 104.272 20.9815 104.314 21.1066C104.356 21.2318 104.398 21.3569 104.44 21.4821C104.482 21.6072 104.524 21.7532 104.545 21.8784C104.587 22.0244 104.608 22.1495 104.629 22.2956C104.65 22.4416 104.692 22.6084 104.713 22.7544C104.734 22.9213 104.755 23.0882 104.776 23.2342C104.797 23.401 104.797 23.5887 104.818 23.7765C104.818 23.9225 104.818 24.0685 104.818 24.1936C104.818 24.2353 104.818 24.2771 104.818 24.3396Z" fill="white"/>
<path d="M180.508 11.4703C180.466 11.4703 180.424 11.4703 180.361 11.4703C180.256 11.4703 180.13 11.4911 180.025 11.512C179.9 11.5328 179.774 11.5537 179.648 11.5954C179.501 11.6371 179.375 11.6997 179.228 11.7623C179.061 11.8457 178.893 11.9291 178.746 12.0543C178.39 12.3046 178.117 12.6383 177.907 13.0138C177.697 13.3892 177.572 13.8064 177.551 14.2444C177.551 14.2861 177.551 14.3487 177.551 14.3904C177.53 14.3695 177.509 14.3487 177.509 14.3487C177.446 14.2861 177.362 14.2027 177.299 14.1401C177.236 14.0775 177.152 13.9941 177.089 13.9315C177.026 13.8689 176.942 13.8064 176.879 13.7229C176.796 13.6604 176.733 13.5978 176.67 13.5352C176.586 13.4726 176.523 13.4101 176.439 13.3475C176.355 13.2849 176.292 13.2223 176.208 13.1806C176.124 13.118 176.062 13.0763 175.978 13.0138C175.894 12.9512 175.831 12.9095 175.747 12.8469C175.663 12.7843 175.579 12.7426 175.516 12.68C175.432 12.6383 175.348 12.5757 175.286 12.534C175.202 12.4923 175.118 12.4297 175.034 12.388C174.95 12.3463 174.866 12.2837 174.782 12.242C174.698 12.2003 174.614 12.1586 174.531 12.1169C174.447 12.0751 174.363 12.0334 174.279 11.9917C174.195 11.95 174.111 11.9083 174.027 11.8666C173.943 11.8248 173.859 11.7831 173.776 11.7414C173.692 11.6997 173.608 11.6788 173.503 11.6371C173.419 11.5954 173.314 11.5746 173.23 11.5328C173.146 11.512 173.042 11.4703 172.958 11.4494C172.874 11.4077 172.769 11.3868 172.685 11.366C172.601 11.3451 172.496 11.3034 172.412 11.2825C172.328 11.2617 172.224 11.22 172.14 11.1991C172.035 11.1783 171.951 11.1574 171.846 11.1365C171.741 11.1157 171.657 11.0948 171.552 11.074C171.448 11.0531 171.364 11.0322 171.259 11.0114C171.154 10.9905 171.07 10.9697 170.965 10.9488C170.86 10.928 170.776 10.9071 170.672 10.9071C170.567 10.8862 170.462 10.8862 170.378 10.8654C170.273 10.8445 170.168 10.8445 170.084 10.8237C169.98 10.8237 169.875 10.8028 169.77 10.8028C169.665 10.8028 169.56 10.782 169.455 10.782C169.35 10.782 169.245 10.7611 169.141 10.7611C169.036 10.7611 168.931 10.7402 168.826 10.7402C168.721 10.7402 168.616 10.7402 168.511 10.7402C168.449 10.7402 168.365 10.7402 168.302 10.7402C168.26 10.7402 168.218 10.7402 168.197 10.7402C168.092 10.7402 167.987 10.7402 167.861 10.7402C167.756 10.7402 167.652 10.7402 167.526 10.7611C167.421 10.7611 167.295 10.782 167.19 10.782C167.085 10.782 166.959 10.8028 166.855 10.8028C166.729 10.8237 166.624 10.8237 166.519 10.8445C166.393 10.8654 166.288 10.8862 166.162 10.9071C166.037 10.928 165.932 10.9488 165.806 10.9697C165.68 10.9905 165.554 11.0114 165.428 11.0531C165.303 11.074 165.177 11.1157 165.051 11.1365C164.925 11.1783 164.799 11.1991 164.673 11.2408C164.548 11.2825 164.422 11.3243 164.275 11.366C164.149 11.4077 164.002 11.4494 163.876 11.512C163.73 11.5537 163.604 11.6163 163.457 11.6788C163.31 11.7414 163.163 11.804 163.038 11.8666C162.891 11.9291 162.744 12.0126 162.597 12.096C162.45 12.1794 162.283 12.2629 162.136 12.3463C161.968 12.4506 161.8 12.534 161.653 12.6383C161.486 12.7426 161.318 12.8677 161.129 12.9929C160.94 13.118 160.752 13.264 160.584 13.4101C160.374 13.5769 160.185 13.7438 159.976 13.9315C159.766 14.1192 159.577 14.3069 159.367 14.5155C159.346 14.5364 159.325 14.5572 159.304 14.5781C159.011 14.8701 158.738 15.183 158.487 15.4959C157.522 16.7056 156.788 18.0405 156.305 19.5006C156.18 19.8969 156.075 20.2932 155.97 20.6895C155.907 20.9815 155.844 21.2944 155.802 21.6072C155.76 21.8575 155.718 22.1287 155.697 22.379C155.676 22.6084 155.655 22.8379 155.634 23.0882C155.613 23.2967 155.613 23.5053 155.613 23.7348C155.613 23.8599 155.613 24.0059 155.613 24.1311C155.613 24.1936 155.613 24.2562 155.613 24.3396C155.613 24.5274 155.613 24.7151 155.634 24.9028C155.634 25.0905 155.655 25.2574 155.655 25.4451C155.676 25.612 155.676 25.7997 155.697 25.9666C155.718 26.1334 155.739 26.2794 155.76 26.4463C155.781 26.6132 155.802 26.7592 155.823 26.9052C155.844 27.0512 155.865 27.1972 155.907 27.3432C155.928 27.4892 155.97 27.6352 155.991 27.7603C156.012 27.9063 156.054 28.0315 156.096 28.1775C156.138 28.3026 156.159 28.4278 156.201 28.5738C156.242 28.6989 156.284 28.8241 156.326 28.9492C156.368 29.0744 156.41 29.1995 156.452 29.3038C156.494 29.429 156.536 29.5333 156.578 29.6584C156.62 29.7627 156.662 29.8879 156.725 29.9921C156.767 30.0964 156.83 30.2007 156.872 30.305C156.914 30.4093 156.977 30.5136 157.018 30.6179C157.06 30.7222 157.123 30.8265 157.186 30.9308C157.228 31.035 157.291 31.1185 157.354 31.2228C157.417 31.3271 157.459 31.4105 157.522 31.5148C157.585 31.5982 157.627 31.7025 157.69 31.7859C157.752 31.8694 157.815 31.9528 157.878 32.0571C157.941 32.1405 158.004 32.2239 158.067 32.3074C158.13 32.3908 158.193 32.4742 158.256 32.5577C158.319 32.6411 158.382 32.7245 158.445 32.808C158.507 32.8914 158.57 32.9748 158.633 33.0374C158.696 33.1208 158.759 33.1834 158.822 33.2668C158.885 33.3503 158.948 33.4129 159.032 33.4963C159.095 33.5797 159.158 33.6423 159.242 33.7049C159.283 33.7466 159.304 33.7883 159.346 33.8092C159.388 33.8509 159.409 33.8717 159.451 33.9134C159.514 33.976 159.598 34.0595 159.661 34.122C159.724 34.1846 159.808 34.2472 159.871 34.3306C159.955 34.3932 160.018 34.4557 160.08 34.5183C160.164 34.5809 160.227 34.6435 160.311 34.706C160.395 34.7686 160.458 34.8312 160.542 34.8938C160.626 34.9563 160.689 35.0189 160.773 35.0815C160.856 35.1441 160.919 35.1858 161.003 35.2484C161.087 35.3109 161.15 35.3526 161.234 35.4152C161.318 35.4778 161.402 35.5195 161.465 35.5821C161.549 35.6238 161.632 35.6864 161.695 35.7281C161.779 35.7698 161.863 35.8324 161.926 35.8741C162.01 35.9158 162.094 35.9784 162.178 36.0201C162.262 36.0618 162.345 36.1244 162.429 36.1661C162.513 36.2078 162.597 36.2495 162.681 36.2913C162.765 36.333 162.849 36.3747 162.933 36.4164C163.017 36.4581 163.1 36.4998 163.184 36.5415C163.268 36.5833 163.352 36.625 163.436 36.6458C163.52 36.6876 163.604 36.7084 163.688 36.7501C163.772 36.7918 163.876 36.8127 163.96 36.8544C164.044 36.8961 164.149 36.917 164.233 36.9587C164.317 37.0004 164.422 37.0213 164.506 37.0421C164.59 37.063 164.694 37.1047 164.778 37.1256C164.862 37.1464 164.967 37.1673 165.051 37.209C165.135 37.2299 165.24 37.2507 165.345 37.2716C165.449 37.2924 165.533 37.3133 165.638 37.3342C165.743 37.355 165.827 37.3759 165.932 37.3967C166.037 37.4176 166.121 37.4384 166.225 37.4384C166.33 37.4593 166.414 37.4802 166.519 37.4802C166.624 37.501 166.729 37.501 166.834 37.5219C166.938 37.5219 167.043 37.5427 167.148 37.5427C167.253 37.5427 167.358 37.5636 167.463 37.5636C167.568 37.5636 167.673 37.5844 167.777 37.5844C167.882 37.5844 167.987 37.5844 168.092 37.5844C168.155 37.5844 168.218 37.5844 168.281 37.5844C168.323 37.5844 168.365 37.5844 168.407 37.5844C168.511 37.5844 168.616 37.5844 168.721 37.5844C168.826 37.5844 168.931 37.5844 169.057 37.5636C169.162 37.5636 169.287 37.5636 169.392 37.5427C169.497 37.5427 169.623 37.5219 169.728 37.5219C169.833 37.5219 169.959 37.501 170.063 37.4802C170.189 37.4593 170.294 37.4593 170.399 37.4384C170.525 37.4176 170.63 37.3967 170.755 37.3967C170.881 37.3759 170.986 37.355 171.112 37.3342C171.238 37.3133 171.364 37.2924 171.469 37.2716C171.594 37.2507 171.72 37.2299 171.825 37.1881C171.951 37.1673 172.077 37.1256 172.203 37.0839C172.328 37.0421 172.454 37.0213 172.58 36.9796C172.706 36.9378 172.832 36.8961 172.979 36.8544C173.104 36.8127 173.251 36.771 173.377 36.7084C173.524 36.6667 173.65 36.6041 173.797 36.5415C173.943 36.479 174.09 36.4164 174.216 36.3538C174.363 36.2913 174.51 36.2078 174.656 36.1244C174.824 36.041 174.971 35.9575 175.118 35.8532C175.286 35.7489 175.453 35.6447 175.6 35.5404C175.768 35.4152 175.957 35.2901 176.124 35.1649C176.313 35.0189 176.502 34.8729 176.691 34.706C176.921 34.5183 177.131 34.3097 177.341 34.1012C177.404 34.0386 177.446 33.9969 177.509 33.9343C177.509 34.0803 177.509 34.2055 177.53 34.3306C177.551 34.4766 177.572 34.6226 177.614 34.7478C177.655 34.8729 177.697 34.9772 177.739 35.1023C177.781 35.2066 177.844 35.3109 177.886 35.4152C177.949 35.4986 177.991 35.6029 178.075 35.6864C178.138 35.7698 178.201 35.8532 178.264 35.9158C178.327 35.9784 178.39 36.0618 178.473 36.1244C178.536 36.187 178.62 36.2495 178.704 36.3121C178.788 36.3747 178.872 36.4164 178.935 36.4581C179.019 36.4998 179.103 36.5415 179.186 36.5833C179.27 36.625 179.354 36.6667 179.459 36.6876C179.543 36.7293 179.648 36.7501 179.732 36.771C179.837 36.7918 179.921 36.8127 180.025 36.8336C180.13 36.8544 180.235 36.8544 180.34 36.8544C180.361 36.8544 180.403 36.8544 180.424 36.8544H182.836V11.4703H180.508ZM177.572 24.3396C177.572 24.5482 177.572 24.7777 177.551 24.9862C177.53 25.2365 177.509 25.4868 177.467 25.7371C177.425 26.05 177.362 26.3629 177.278 26.6757C176.942 27.9689 176.334 29.0953 175.432 30.0756C175.307 30.2007 175.181 30.3259 175.055 30.451C174.95 30.5553 174.845 30.6387 174.74 30.743C174.552 30.9099 174.363 31.0768 174.153 31.2228C173.985 31.3479 173.797 31.4731 173.629 31.5982C173.461 31.7025 173.314 31.8068 173.146 31.8902C173 31.9736 172.853 32.0571 172.706 32.1197C172.559 32.1822 172.433 32.2448 172.286 32.3074C172.161 32.37 172.014 32.4117 171.888 32.4534C171.762 32.4951 171.636 32.5368 171.49 32.5785C171.364 32.6202 171.238 32.6411 171.112 32.6828C170.986 32.7037 170.881 32.7454 170.755 32.7663C170.63 32.7871 170.525 32.808 170.399 32.8288C170.294 32.8497 170.168 32.8497 170.063 32.8705C169.959 32.8705 169.833 32.8914 169.728 32.8914C169.623 32.8914 169.518 32.9123 169.392 32.9123C169.329 32.9123 169.266 32.9123 169.183 32.9123C169.141 32.9123 169.099 32.9123 169.057 32.9123C168.952 32.9123 168.847 32.9123 168.742 32.9123C168.637 32.9123 168.532 32.8914 168.428 32.8914C168.323 32.8914 168.218 32.8705 168.113 32.8705C168.008 32.8705 167.903 32.8497 167.819 32.8288C167.714 32.808 167.61 32.808 167.526 32.7871C167.421 32.7663 167.337 32.7454 167.232 32.7245C167.127 32.7037 167.043 32.6828 166.938 32.662C166.834 32.6411 166.75 32.6202 166.645 32.5785C166.561 32.5577 166.456 32.516 166.372 32.4951C166.288 32.4534 166.183 32.4325 166.1 32.3908C166.016 32.3491 165.932 32.3282 165.827 32.2865C165.743 32.2448 165.659 32.2031 165.575 32.1822C165.491 32.1405 165.407 32.0988 165.324 32.0571C165.24 32.0154 165.156 31.9737 165.072 31.9319C164.988 31.8902 164.904 31.8485 164.82 31.7859C164.736 31.7442 164.652 31.6816 164.59 31.6399C164.506 31.5982 164.422 31.5356 164.359 31.4731C164.275 31.4313 164.212 31.3688 164.128 31.3062C164.044 31.2436 163.981 31.2019 163.897 31.1393C163.814 31.0768 163.751 31.0142 163.667 30.9516C163.583 30.889 163.52 30.8265 163.457 30.7639C163.373 30.7013 163.31 30.6387 163.247 30.5553C163.226 30.5345 163.226 30.5345 163.205 30.5136C163.142 30.451 163.1 30.3884 163.038 30.3467C162.975 30.2842 162.912 30.2007 162.828 30.1173C162.765 30.0339 162.702 29.9713 162.639 29.8879C162.576 29.8044 162.513 29.721 162.45 29.6376C162.387 29.5541 162.325 29.4707 162.262 29.3873C162.199 29.3038 162.136 29.1995 162.094 29.1161C162.031 29.0327 161.989 28.9284 161.926 28.8241C161.863 28.7198 161.821 28.6155 161.758 28.5321C161.716 28.4278 161.653 28.3235 161.611 28.2192C161.569 28.1149 161.507 27.9898 161.465 27.8855C161.423 27.7603 161.381 27.6561 161.339 27.5309C161.297 27.4058 161.255 27.2806 161.213 27.1555C161.171 27.0303 161.129 26.8843 161.108 26.7592C161.066 26.6132 161.045 26.488 161.024 26.342C161.003 26.196 160.961 26.05 160.94 25.8831C160.919 25.7163 160.898 25.5703 160.877 25.4034C160.856 25.2365 160.856 25.0488 160.835 24.8819C160.814 24.6942 160.814 24.5065 160.814 24.3188V24.1936C160.814 24.0268 160.814 23.8599 160.814 23.7139C160.835 23.4845 160.835 23.255 160.856 23.0256C160.877 22.7544 160.919 22.4833 160.961 22.233C161.024 21.8784 161.108 21.5238 161.213 21.1901C161.549 20.0846 162.073 19.1251 162.807 18.27C162.933 18.124 163.059 17.9988 163.184 17.8737C163.289 17.7694 163.415 17.6651 163.52 17.5608C163.709 17.3939 163.897 17.2271 164.107 17.0811C164.275 16.9559 164.443 16.8308 164.631 16.7265C164.778 16.6222 164.946 16.5388 165.093 16.4553C165.24 16.3719 165.387 16.3093 165.533 16.2467C165.68 16.1842 165.806 16.1216 165.953 16.0799C166.079 16.0382 166.225 15.9756 166.351 15.9339C166.477 15.8922 166.603 15.8504 166.729 15.8296C166.855 15.7879 166.98 15.767 167.106 15.7461C167.232 15.7253 167.337 15.7044 167.463 15.6836C167.589 15.6627 167.693 15.6419 167.819 15.621C167.924 15.6001 168.05 15.6001 168.155 15.5793C168.26 15.5793 168.386 15.5584 168.49 15.5584C168.595 15.5584 168.7 15.5376 168.826 15.5376C168.931 15.5376 169.036 15.5376 169.141 15.5376C169.245 15.5376 169.35 15.5376 169.455 15.5376C169.56 15.5376 169.665 15.5376 169.77 15.5584C169.875 15.5584 169.98 15.5793 170.084 15.5793C170.189 15.5793 170.273 15.6001 170.378 15.621C170.483 15.6419 170.567 15.6419 170.672 15.6627C170.776 15.6836 170.86 15.7044 170.965 15.7253C171.049 15.7461 171.154 15.767 171.259 15.7879C171.343 15.8087 171.448 15.8296 171.531 15.8713C171.615 15.8922 171.72 15.9339 171.804 15.9547C171.888 15.9756 171.993 16.0173 172.077 16.059C172.161 16.1007 172.245 16.1216 172.349 16.1633C172.433 16.205 172.517 16.2467 172.601 16.2676C172.685 16.3093 172.769 16.351 172.853 16.3927C172.937 16.4345 173.021 16.4762 173.104 16.5179C173.188 16.5596 173.272 16.6013 173.356 16.6639C173.44 16.7056 173.524 16.7682 173.587 16.8099C173.671 16.8516 173.755 16.9142 173.817 16.9768C173.901 17.0185 173.964 17.0811 174.048 17.1436C174.132 17.2062 174.195 17.2479 174.279 17.3105C174.363 17.3731 174.426 17.4356 174.51 17.4982C174.593 17.5608 174.656 17.6234 174.74 17.6859C174.803 17.7485 174.887 17.8111 174.95 17.8737C174.971 17.8945 174.992 17.9154 175.013 17.9362C175.055 17.978 175.118 18.0197 175.16 18.0822C175.223 18.1448 175.307 18.2282 175.369 18.2908C175.432 18.3534 175.495 18.4368 175.579 18.5203C175.642 18.6037 175.705 18.6663 175.768 18.7497C175.831 18.8331 175.894 18.9166 175.957 19C176.02 19.0834 176.083 19.1669 176.145 19.2503C176.208 19.3337 176.271 19.438 176.313 19.5214C176.376 19.6049 176.439 19.7092 176.481 19.8135C176.544 19.9177 176.586 20.0012 176.649 20.1055C176.691 20.2098 176.754 20.314 176.796 20.4183C176.838 20.5226 176.9 20.6478 176.942 20.7521C176.984 20.8564 177.026 20.9815 177.068 21.1066C177.11 21.2318 177.152 21.3569 177.194 21.4821C177.236 21.6072 177.278 21.7532 177.299 21.8784C177.341 22.0244 177.362 22.1495 177.383 22.2956C177.404 22.4416 177.446 22.6084 177.467 22.7544C177.488 22.9213 177.509 23.0882 177.53 23.2342C177.551 23.401 177.551 23.5887 177.572 23.7765C177.572 23.9225 177.572 24.0685 177.572 24.1936C177.572 24.2353 177.572 24.2771 177.572 24.3396Z" fill="white"/>
</g>
<defs>
<clipPath id="clip0_4016_1463">
<rect width="183" height="52" fill="white"/>
</clipPath>
</defs>
</svg>
