<svg width="320" height="92" viewBox="0 0 320 92" fill="none" xmlns="http://www.w3.org/2000/svg">
<g clip-path="url(#clip0_3354_5427)">
<path fill-rule="evenodd" clip-rule="evenodd" d="M56.1456 20.3934L47.7105 5.79688C41.3292 9.46433 39.1654 17.6061 42.8328 23.9508L51.2679 38.5473C57.6493 34.8798 59.8131 26.738 56.1456 20.3934ZM25.5979 18.1927H8.72768C8.72768 25.5277 14.7056 31.5056 22.0405 31.5056H38.9108C38.9108 24.134 32.9328 18.1927 25.5979 18.1927ZM8.43513 43.5367L0 58.1332C6.34468 61.8006 14.4864 59.6002 18.1539 53.2554L26.589 38.659C20.2443 34.9915 12.1026 37.192 8.43513 43.5367ZM30.2188 85.6753L21.7837 71.0789C18.1163 64.7342 20.28 56.5924 26.6614 52.925L35.0965 67.5214C38.764 73.8661 36.5635 81.9712 30.2188 85.6753ZM52.3009 73.2765H69.1712C69.1712 65.9049 63.1932 59.9637 55.8584 59.9637H38.9881C38.9881 67.3353 44.966 73.2765 52.3009 73.2765ZM77.8985 33.3396L69.4634 47.936C65.7959 54.2807 57.6542 56.4812 51.3095 52.8138L59.7447 38.2173C63.4121 31.8359 71.5538 29.6721 77.8985 33.3396Z" fill="#EBBD30"/>
<path d="M104.408 79.2536C104.408 78.0067 105.435 77.0164 108.002 77.0164C109.433 77.0164 111.083 77.4565 112.55 78.3L113.504 75.9162C112.073 74.9627 109.983 74.4492 108.002 74.4492C103.491 74.4492 101.364 76.723 101.364 79.3636C101.364 85.4883 111.156 83.1778 111.156 86.7352C111.156 87.9455 110.056 88.8623 107.489 88.8623C105.472 88.8623 103.381 88.0922 102.025 87.0653L100.961 89.4491C102.318 90.6227 104.885 91.4296 107.452 91.4296C111.963 91.4296 114.127 89.1557 114.127 86.5152C114.2 80.5005 104.408 82.7744 104.408 79.2536ZM130.887 83.9113C130.887 87.322 129.384 88.7523 126.706 88.7523C124.029 88.7523 122.526 87.2853 122.526 83.9113V74.7059H119.445V84.0213C119.445 88.8257 122.159 91.4296 126.67 91.4296C131.181 91.4296 133.895 88.8257 133.895 84.0213V74.7059H130.887V83.9113ZM147.354 74.7059H140.569V91.2095H143.65V86.4418H147.391C151.718 86.4418 154.432 84.2047 154.432 80.5739C154.359 76.9431 151.682 74.7059 147.354 74.7059ZM147.207 83.8746H143.613V77.3098H147.207C149.885 77.3098 151.278 78.5201 151.278 80.5739C151.278 82.6643 149.885 83.8746 147.207 83.8746ZM162.831 84.0946H170.789V81.5641H162.831V77.2732H171.816V74.7059H159.787V91.2095H172.146V88.6423H162.831V84.0946ZM191.73 80.5739C191.73 76.9064 189.053 74.7059 184.689 74.7059H177.904V91.2095H180.985V86.4051H184.725C184.946 86.4051 185.166 86.4051 185.349 86.3685L188.723 91.2095H192.024L188.246 85.7817C190.483 84.9015 191.73 83.0677 191.73 80.5739ZM184.579 83.8746H180.985V77.3098H184.579C187.256 77.3098 188.65 78.5201 188.65 80.5739C188.65 82.6643 187.256 83.8746 184.579 83.8746ZM213.038 74.7059L206.62 85.635L200.055 74.7059H197.525V91.2095H200.459V80.4272L205.887 89.3391H207.244L212.671 80.2805L212.708 91.2095H215.605L215.569 74.7059H213.038ZM227.451 74.7059L220.043 91.2095H223.197L224.811 87.3953H233.062L234.713 91.2095H237.903L230.459 74.7059H227.451ZM225.874 84.9748L228.955 77.7499L232.072 84.9748H225.874ZM256.204 80.5739C256.204 76.9064 253.527 74.7059 249.163 74.7059H242.378V91.2095H245.458V86.4051H249.199C249.419 86.4051 249.639 86.4051 249.823 86.3685L253.197 91.2095H256.497L252.683 85.7817C254.92 84.9015 256.204 83.0677 256.204 80.5739ZM249.016 83.8746H245.422V77.3098H249.016C251.693 77.3098 253.087 78.5201 253.087 80.5739C253.123 82.6643 251.73 83.8746 249.016 83.8746ZM276.632 74.7059H273.184L265.043 83.1778V74.7059H261.962V91.2095H265.043V86.9919L267.646 84.3147L273.478 91.2095H277.072L269.7 82.0775L276.632 74.7059ZM284.553 84.0946H292.512V81.5641H284.553V77.2732H293.539V74.7059H281.509V91.2095H293.869V88.6423H284.553V84.0946ZM297.536 74.7059V77.3098H303.001V91.2095H306.081V77.3098H311.546V74.7059H297.536Z" fill="#EBBD30"/>
<path d="M140.429 41.8457C140.429 41.5156 140.393 41.1855 140.393 40.8555C140.393 40.5621 140.356 40.232 140.319 39.9386C140.282 39.6452 140.282 39.3518 140.246 39.0584C140.209 38.765 140.172 38.5083 140.136 38.2149C140.099 37.9582 140.062 37.6648 139.989 37.4081C139.952 37.1513 139.879 36.8946 139.842 36.6379C139.806 36.3812 139.732 36.1611 139.659 35.9044C139.622 35.6844 139.549 35.4276 139.476 35.2076C139.402 34.9875 139.329 34.7675 139.292 34.5474C139.219 34.3274 139.146 34.1073 139.072 33.8873C138.999 33.6673 138.926 33.4839 138.852 33.2638C138.779 33.0438 138.705 32.8604 138.632 32.677C138.559 32.4937 138.485 32.2736 138.375 32.0902C138.302 31.9069 138.192 31.7235 138.119 31.5401C138.045 31.3568 137.935 31.1734 137.862 30.99C137.789 30.8066 137.679 30.6233 137.569 30.4766C137.495 30.2932 137.385 30.1465 137.275 29.9631C137.165 29.7797 137.092 29.633 136.982 29.4864C136.872 29.3397 136.798 29.1563 136.688 29.0096C136.578 28.8629 136.468 28.7162 136.358 28.5328C136.248 28.3861 136.138 28.2394 136.028 28.0927C135.918 27.946 135.808 27.7993 135.698 27.6526C135.588 27.5059 135.478 27.3592 135.368 27.2125C135.258 27.0658 135.148 26.9191 135.038 26.8091C134.928 26.6624 134.818 26.5524 134.708 26.4057C134.598 26.259 134.488 26.149 134.341 26.0023C134.231 25.8922 134.121 25.7455 133.974 25.6355C133.938 25.5988 133.938 25.5622 133.901 25.5622C133.828 25.4521 133.718 25.3788 133.608 25.2688C133.498 25.1588 133.351 25.0121 133.241 24.902C133.131 24.792 132.984 24.682 132.874 24.572C132.764 24.4619 132.618 24.3519 132.508 24.2419C132.361 24.1319 132.251 24.0218 132.141 23.9118C131.994 23.8018 131.884 23.6918 131.737 23.5817C131.591 23.4717 131.481 23.3617 131.334 23.2883C131.187 23.1783 131.077 23.105 130.931 22.995C130.784 22.8849 130.674 22.8116 130.527 22.7016C130.38 22.5915 130.234 22.5182 130.124 22.4082C129.977 22.3348 129.83 22.2248 129.72 22.1514C129.574 22.0781 129.427 21.9681 129.28 21.8947C129.133 21.8214 128.987 21.7113 128.84 21.638C128.693 21.5646 128.547 21.4913 128.4 21.3813C128.253 21.3079 128.107 21.2346 127.96 21.1612C127.813 21.0879 127.666 21.0145 127.52 20.9412C127.373 20.8678 127.226 20.7945 127.08 20.7211C126.933 20.6478 126.786 20.5744 126.64 20.5378C126.493 20.4644 126.346 20.4277 126.163 20.3544C126.016 20.281 125.869 20.2444 125.686 20.171C125.539 20.0977 125.356 20.061 125.209 19.9876C125.063 19.9143 124.879 19.8776 124.733 19.8409C124.586 19.8043 124.402 19.7309 124.256 19.6942C124.072 19.6576 123.926 19.6209 123.742 19.5475C123.559 19.5109 123.412 19.4742 123.229 19.4375C123.045 19.4008 122.899 19.3642 122.715 19.3275C122.532 19.2908 122.385 19.2541 122.202 19.2175C122.019 19.1808 121.872 19.1441 121.689 19.1441C121.505 19.1074 121.322 19.1074 121.175 19.0708C120.992 19.0341 120.808 19.0341 120.662 18.9974C120.478 18.9608 120.295 18.9608 120.112 18.9608C119.928 18.9608 119.745 18.9241 119.561 18.9241C119.378 18.9241 119.195 18.9241 119.011 18.8874C118.828 18.8874 118.645 18.8874 118.461 18.8874C118.425 18.8874 118.351 18.8874 118.314 18.8874C118.168 18.8874 118.021 18.8874 117.911 18.8874C117.728 18.8874 117.544 18.8874 117.324 18.8874C117.141 18.8874 116.958 18.8874 116.737 18.9241C116.554 18.9241 116.334 18.9608 116.151 18.9608C115.967 18.9608 115.747 18.9974 115.564 18.9974C115.344 18.9974 115.16 19.0341 114.977 19.0708C114.794 19.1074 114.574 19.1074 114.39 19.1441C114.17 19.1808 113.987 19.2175 113.767 19.2541C113.547 19.2908 113.363 19.3275 113.143 19.3642C112.923 19.4008 112.703 19.4375 112.52 19.5109C112.3 19.5475 112.08 19.6209 111.86 19.6576C111.64 19.7309 111.42 19.7676 111.2 19.8409C110.98 19.9143 110.76 19.951 110.54 20.0243C110.319 20.0977 110.063 20.171 109.843 20.2444C109.623 20.3177 109.366 20.4277 109.146 20.5011C108.889 20.6111 108.669 20.6845 108.412 20.7945C108.156 20.9045 107.899 21.0145 107.642 21.1612C107.385 21.3079 107.129 21.4179 106.872 21.5646C106.579 21.7113 106.322 21.8947 106.065 22.0414C105.772 22.2248 105.478 22.4082 105.185 22.6282C104.855 22.8483 104.562 23.0683 104.232 23.325C103.865 23.6184 103.535 23.9118 103.205 24.2052C102.838 24.5353 102.471 24.902 102.141 25.2688V0H97.9235C97.8501 0 97.8135 0 97.7401 0C97.5567 0 97.3367 0.0366746 97.1533 0.0733491C96.9333 0.110024 96.7132 0.146698 96.4932 0.220047C96.2365 0.293397 96.0164 0.366746 95.7964 0.476769C95.503 0.586793 95.2463 0.770166 94.9895 0.916864C94.5494 1.21026 94.146 1.61368 93.8159 2.05378C93.5226 2.4572 93.2658 2.93397 93.0825 3.41073C92.8991 3.92418 92.7891 4.43762 92.7891 5.02442C92.7891 5.06109 92.7891 5.09776 92.7891 5.17111V64.8773H97.0066C97.0433 64.8773 97.0433 64.8773 97.08 64.8773C97.2634 64.8773 97.4834 64.8773 97.6668 64.8406C97.8868 64.804 98.1069 64.7673 98.2902 64.7306C98.5103 64.6573 98.767 64.5839 98.987 64.5106C99.2804 64.4005 99.5372 64.2538 99.7572 64.1071C100.124 63.8504 100.491 63.557 100.784 63.2269C101.334 62.6035 101.774 61.87 101.958 61.0265C102.068 60.6231 102.104 60.2196 102.104 59.7795C102.214 59.8896 102.324 59.9996 102.434 60.1096C102.544 60.2196 102.691 60.3663 102.801 60.4764C102.911 60.5864 103.058 60.6964 103.168 60.8431C103.278 60.9531 103.425 61.0632 103.535 61.1732C103.681 61.2832 103.791 61.3932 103.901 61.5032C104.048 61.6133 104.158 61.7233 104.305 61.8333C104.452 61.9433 104.562 62.0534 104.708 62.1267C104.855 62.2367 104.965 62.3101 105.112 62.4201C105.258 62.5301 105.368 62.6035 105.515 62.7135C105.662 62.7869 105.808 62.8969 105.919 62.9702C106.065 63.0436 106.212 63.1536 106.359 63.2269C106.505 63.3003 106.652 63.4103 106.799 63.4837C106.945 63.557 107.092 63.6304 107.239 63.7037C107.385 63.7771 107.532 63.8504 107.679 63.9238C107.826 63.9971 107.972 64.0705 108.119 64.1438C108.266 64.2172 108.412 64.2905 108.559 64.3639C108.706 64.4372 108.852 64.5106 108.999 64.5472C109.146 64.6206 109.293 64.6573 109.476 64.7306C109.623 64.804 109.806 64.8406 109.953 64.914C110.099 64.9507 110.283 65.024 110.429 65.0607C110.576 65.0974 110.76 65.1707 110.906 65.2074C111.053 65.244 111.236 65.3174 111.383 65.3541C111.53 65.3907 111.713 65.4274 111.896 65.4641C112.043 65.5008 112.227 65.5375 112.41 65.5741C112.593 65.6108 112.74 65.6475 112.923 65.6842C113.107 65.7208 113.253 65.7575 113.437 65.7942C113.62 65.8308 113.767 65.8675 113.95 65.8675C114.134 65.9042 114.317 65.9042 114.464 65.9409C114.647 65.9775 114.83 65.9775 114.977 66.0142C115.16 66.0509 115.344 66.0509 115.527 66.0509C115.711 66.0509 115.894 66.0876 116.077 66.0876C116.261 66.0876 116.444 66.1242 116.627 66.1242C116.811 66.1242 116.994 66.1242 117.178 66.1609C117.361 66.1609 117.544 66.1609 117.728 66.1609C117.911 66.1609 118.094 66.1609 118.278 66.1609C118.461 66.1609 118.645 66.1609 118.865 66.1609C119.048 66.1609 119.231 66.1609 119.451 66.1242C119.635 66.1242 119.818 66.1242 120.038 66.0876C120.222 66.0876 120.442 66.0509 120.625 66.0509C120.845 66.0509 121.028 66.0142 121.212 65.9775C121.432 65.9409 121.615 65.9042 121.835 65.9042C122.055 65.8675 122.239 65.8308 122.459 65.7942C122.679 65.7575 122.862 65.7208 123.082 65.6842C123.302 65.6475 123.522 65.5741 123.706 65.5374C123.926 65.4641 124.146 65.4274 124.366 65.3541C124.586 65.2807 124.806 65.2074 125.026 65.134C125.246 65.0607 125.466 64.9873 125.723 64.914C125.943 64.8406 126.2 64.7306 126.42 64.6206C126.676 64.5106 126.933 64.4005 127.153 64.2905C127.41 64.1805 127.666 64.0705 127.923 63.9238C128.18 63.7771 128.437 63.667 128.693 63.5203C128.987 63.3736 129.243 63.1903 129.5 63.0436C129.794 62.8602 130.087 62.6768 130.38 62.4935C130.674 62.2734 131.004 62.0534 131.297 61.8333C131.627 61.5766 131.957 61.2832 132.324 61.0265C132.691 60.6964 133.058 60.3663 133.424 59.9996C133.571 59.8529 133.718 59.7062 133.864 59.5962C134.158 59.3028 134.451 58.9727 134.745 58.6793C135.441 57.8725 136.102 57.0289 136.652 56.1854C137.349 55.1585 137.935 54.0583 138.412 52.9214C138.816 51.9679 139.182 50.9776 139.439 49.9508C139.622 49.364 139.732 48.7405 139.879 48.117C139.989 47.6403 140.062 47.1268 140.136 46.6134C140.209 46.1733 140.246 45.7699 140.282 45.3298C140.319 44.9263 140.356 44.5596 140.356 44.1562C140.393 43.7894 140.393 43.4227 140.393 43.0559C140.393 42.9459 140.393 42.8359 140.393 42.6892C140.429 42.2858 140.429 42.0657 140.429 41.8457ZM131.334 43.0193C131.334 43.4227 131.297 43.7894 131.297 44.1562C131.261 44.5963 131.224 45.0364 131.151 45.4765C131.077 46.0266 130.967 46.5767 130.82 47.1268C130.197 49.584 129.06 51.6745 127.41 53.3982C127.336 53.4715 127.263 53.5449 127.19 53.6182C126.896 53.9116 126.566 54.2417 126.236 54.4984C125.906 54.7551 125.613 55.0118 125.283 55.2686C124.989 55.4519 124.696 55.672 124.402 55.8554C124.146 56.0021 123.889 56.1488 123.596 56.2955C123.339 56.4055 123.082 56.5522 122.825 56.6622C122.605 56.7722 122.349 56.8456 122.092 56.9556C121.872 57.0289 121.652 57.1023 121.395 57.1756C121.175 57.249 120.955 57.3223 120.735 57.359C120.515 57.4324 120.295 57.469 120.075 57.5057C119.855 57.5424 119.671 57.5791 119.451 57.6157C119.231 57.6524 119.048 57.6891 118.828 57.6891C118.645 57.7258 118.425 57.7258 118.241 57.7624C118.058 57.7624 117.838 57.7991 117.654 57.7991C117.471 57.7991 117.288 57.8358 117.068 57.8358C116.921 57.8358 116.811 57.8358 116.664 57.8358H116.481C116.297 57.8358 116.114 57.8358 115.931 57.8358C115.747 57.8358 115.564 57.8358 115.381 57.7991C115.197 57.7991 115.014 57.7624 114.83 57.7624C114.647 57.7624 114.464 57.7258 114.317 57.6891C114.134 57.6524 113.987 57.6157 113.804 57.6157C113.62 57.5791 113.473 57.5424 113.29 57.5057C113.143 57.469 112.96 57.4324 112.777 57.3957C112.63 57.359 112.447 57.3223 112.3 57.249C112.153 57.2123 111.97 57.139 111.823 57.1023C111.676 57.0656 111.493 56.9923 111.346 56.9189C111.2 56.8456 111.053 56.8089 110.906 56.7355C110.76 56.6622 110.613 56.5889 110.466 56.5155C110.319 56.4422 110.173 56.3688 110.026 56.2955C109.879 56.2221 109.733 56.1488 109.586 56.0754C109.439 56.0021 109.293 55.892 109.146 55.8187C108.999 55.7453 108.852 55.6353 108.742 55.562C108.632 55.4886 108.449 55.3786 108.339 55.2686C108.192 55.1585 108.082 55.0852 107.936 54.9752C107.789 54.8651 107.679 54.7551 107.532 54.6451C107.386 54.5351 107.275 54.4251 107.129 54.315C106.982 54.205 106.872 54.095 106.762 53.985C106.652 53.8749 106.505 53.7649 106.395 53.6182C106.285 53.5082 106.139 53.3615 106.029 53.2515C105.919 53.1414 105.772 52.9947 105.662 52.8847C105.552 52.738 105.442 52.628 105.295 52.4813C105.185 52.3346 105.075 52.1879 104.965 52.0779C104.855 51.9312 104.745 51.7845 104.635 51.6378C104.525 51.4911 104.415 51.3444 104.305 51.1977C104.195 51.051 104.085 50.8676 104.011 50.7209C103.901 50.5376 103.828 50.3909 103.718 50.2075C103.608 50.0241 103.535 49.8407 103.425 49.6574C103.351 49.474 103.241 49.2906 103.168 49.1072C103.095 48.9239 102.985 48.7038 102.911 48.5205C102.838 48.3004 102.765 48.117 102.691 47.897C102.618 47.6769 102.544 47.4569 102.471 47.2368C102.398 47.0168 102.361 46.7601 102.288 46.54C102.251 46.2833 102.178 46.0266 102.141 45.7699C102.104 45.5131 102.068 45.2197 102.031 44.963C101.994 44.6696 101.958 44.3762 101.958 44.0828C101.921 43.7528 101.921 43.4594 101.921 43.1293C101.921 42.9826 101.921 42.8359 101.921 42.6892C101.921 42.4691 101.921 42.2491 101.921 42.0657C101.921 41.6623 101.958 41.2589 101.994 40.8921C102.031 40.4154 102.104 39.9753 102.178 39.4985C102.288 38.8384 102.434 38.2149 102.654 37.5914C103.205 35.8677 104.048 34.2907 105.185 32.8971C105.552 32.457 105.919 32.0536 106.322 31.6502C106.395 31.5768 106.432 31.5401 106.505 31.4668C106.835 31.1367 107.202 30.8433 107.569 30.5499C107.862 30.2932 108.192 30.0731 108.522 29.8531C108.816 29.6697 109.073 29.4864 109.366 29.303C109.623 29.1563 109.879 29.0096 110.173 28.8629C110.429 28.7529 110.686 28.6062 110.906 28.4961C111.163 28.3861 111.383 28.3128 111.64 28.2027C111.86 28.1294 112.08 28.056 112.337 27.9827C112.557 27.9093 112.777 27.836 112.997 27.7993C113.217 27.726 113.437 27.6893 113.657 27.6526C113.877 27.6159 114.06 27.5793 114.28 27.5426C114.5 27.5059 114.684 27.4692 114.904 27.4692C115.087 27.4326 115.307 27.4326 115.491 27.3959C115.674 27.3959 115.894 27.3592 116.077 27.3592C116.261 27.3592 116.444 27.3592 116.627 27.3592H116.664C116.848 27.3592 117.031 27.3592 117.214 27.3592C117.398 27.3592 117.581 27.3592 117.764 27.3959C117.948 27.3959 118.131 27.4326 118.314 27.4326C118.498 27.4326 118.681 27.4692 118.828 27.4692C118.975 27.4692 119.195 27.5059 119.341 27.5426C119.525 27.5793 119.671 27.6159 119.855 27.6159C120.038 27.6526 120.185 27.6893 120.368 27.726C120.552 27.7626 120.698 27.7993 120.845 27.8727C120.992 27.9093 121.175 27.946 121.322 28.0194C121.468 28.056 121.652 28.1294 121.799 28.1661C121.945 28.2027 122.129 28.2761 122.275 28.3494C122.422 28.4228 122.605 28.4595 122.752 28.5328C122.899 28.6062 123.045 28.6795 123.192 28.7529C123.339 28.8262 123.486 28.8996 123.632 28.9729C123.779 29.0463 123.926 29.1196 124.072 29.2296C124.219 29.303 124.366 29.413 124.512 29.4864C124.659 29.5597 124.806 29.6697 124.916 29.7431C125.063 29.8164 125.173 29.9264 125.319 30.0365C125.466 30.1465 125.576 30.2198 125.723 30.3299C125.869 30.4399 125.979 30.5499 126.126 30.6599C126.236 30.77 126.383 30.88 126.493 30.99C126.603 31.1 126.75 31.2101 126.86 31.3568C126.933 31.4301 126.97 31.4668 127.043 31.5401C127.116 31.6135 127.153 31.6502 127.226 31.7235C127.336 31.8335 127.483 31.9802 127.593 32.0902C127.703 32.2369 127.813 32.347 127.923 32.4937C128.033 32.6404 128.143 32.7871 128.253 32.9338C128.363 33.0805 128.473 33.2272 128.583 33.3739C128.693 33.5206 128.803 33.6673 128.877 33.8506C128.987 33.9973 129.06 34.1807 129.17 34.3641C129.28 34.5474 129.354 34.6941 129.464 34.8775C129.574 35.0609 129.647 35.2443 129.72 35.4276C129.794 35.611 129.904 35.7944 129.977 36.0144C130.05 36.1978 130.124 36.4178 130.197 36.6379C130.27 36.8579 130.344 37.078 130.417 37.298C130.49 37.5181 130.564 37.7381 130.6 37.9949C130.674 38.2516 130.71 38.4716 130.784 38.7283C130.82 38.9851 130.894 39.2418 130.931 39.4985C130.967 39.7552 131.004 40.0486 131.041 40.342C131.077 40.6354 131.114 40.9288 131.114 41.2222C131.151 41.5523 131.151 41.8457 131.151 42.1758C131.151 42.3591 131.151 42.5425 131.151 42.7259C131.334 42.6892 131.334 42.8359 131.334 43.0193Z" fill="#173F92"/>
<path d="M258.92 20.1719C258.81 20.1719 258.736 20.1719 258.626 20.1719C258.443 20.1719 258.223 20.2085 258.039 20.2452C257.819 20.2819 257.599 20.3186 257.379 20.3919C257.123 20.4653 256.902 20.5753 256.646 20.6853C256.352 20.832 256.059 21.0154 255.802 21.1988C254.665 22.079 253.895 23.3992 253.785 24.9029C253.785 25.0129 253.785 25.1596 253.785 25.2696V64.8048H258.003C258.039 64.8048 258.113 64.8048 258.149 64.8048C258.369 64.8048 258.553 64.7681 258.736 64.7681C258.956 64.7315 259.176 64.6948 259.36 64.6214C259.616 64.5481 259.836 64.4748 260.056 64.3647C260.35 64.2547 260.607 64.108 260.863 63.9246C261.303 63.6312 261.67 63.3012 261.964 62.8977C262.367 62.421 262.697 61.8342 262.88 61.2107C263.027 60.7339 263.1 60.2572 263.1 59.7437C263.1 59.7071 263.1 59.7071 263.1 59.6704V20.1719H258.92Z" fill="#173F92"/>
<path d="M264.387 6.3458C264.387 6.05241 264.35 5.75901 264.277 5.50229C264.24 5.24557 264.167 5.02552 264.094 4.80547C264.02 4.58543 263.947 4.40205 263.837 4.21868C263.764 4.03531 263.654 3.85193 263.544 3.70524C263.434 3.55854 263.36 3.41184 263.213 3.26514C263.103 3.11844 262.993 2.97174 262.883 2.86172C262.81 2.78837 262.737 2.71502 262.663 2.64167C262.627 2.605 262.553 2.53165 262.517 2.49497C262.407 2.38495 262.26 2.27493 262.15 2.1649C262.003 2.05488 261.893 1.94486 261.747 1.87151C261.6 1.79816 261.453 1.68813 261.306 1.61479C261.16 1.54144 261.013 1.46809 260.866 1.39474C260.72 1.32139 260.536 1.28471 260.39 1.21137C260.243 1.13802 260.059 1.10134 259.913 1.06467C259.729 1.02799 259.583 0.991318 259.399 0.954643C259.216 0.917969 259.033 0.917969 258.849 0.917969C258.703 0.917969 258.556 0.917969 258.446 0.917969C258.409 0.917969 258.336 0.917969 258.299 0.917969C258.116 0.917969 257.896 0.917969 257.712 0.954643C257.492 0.991318 257.309 0.991318 257.089 1.02799C256.869 1.06467 256.649 1.13802 256.429 1.17469C256.172 1.24804 255.952 1.35806 255.732 1.46809C255.439 1.61479 255.182 1.76148 254.925 1.94486C254.632 2.12823 254.375 2.34828 254.118 2.605C254.008 2.71502 253.935 2.78837 253.825 2.8984C253.238 3.59521 252.798 4.3287 252.578 5.17222C252.468 5.61231 252.395 6.08908 252.395 6.56585C252.395 6.60253 252.395 6.67587 252.395 6.74922C252.395 7.04262 252.395 7.29934 252.431 7.55606C252.468 7.81279 252.505 8.06951 252.578 8.32623C252.615 8.54628 252.688 8.76632 252.798 8.98637C252.871 9.16975 252.981 9.35312 253.055 9.53649C253.128 9.71986 253.238 9.86656 253.348 10.0133C253.458 10.16 253.568 10.3067 253.678 10.4534C253.788 10.5634 253.898 10.7101 254.045 10.8201C254.082 10.8568 254.082 10.8568 254.118 10.8934C254.228 11.0035 254.338 11.0768 254.448 11.1868C254.595 11.2969 254.705 11.4069 254.852 11.4802C254.998 11.5903 255.145 11.6636 255.255 11.737C255.402 11.8103 255.549 11.8837 255.695 11.957C255.842 12.0304 255.989 12.067 256.172 12.1404C256.319 12.2137 256.502 12.2504 256.649 12.2871C256.832 12.3238 256.979 12.3604 257.162 12.3971C257.346 12.4338 257.492 12.4705 257.676 12.4705C257.859 12.5071 258.042 12.5071 258.226 12.5071C258.299 12.5071 258.372 12.5071 258.446 12.5071C258.556 12.5071 258.666 12.5071 258.813 12.5071C258.996 12.5071 259.216 12.4705 259.399 12.4705C259.619 12.4338 259.803 12.3971 260.023 12.3604C260.243 12.3238 260.463 12.2504 260.683 12.1771C260.94 12.1037 261.196 11.9937 261.416 11.847C261.71 11.7003 262.003 11.4802 262.297 11.2602C262.443 11.1502 262.59 11.0035 262.737 10.8934C263.69 9.97659 264.24 8.803 264.387 7.44604C264.424 7.22599 264.424 7.00595 264.424 6.74922C264.387 6.6392 264.387 6.4925 264.387 6.3458Z" fill="#173F92"/>
<path d="M244.473 36.9313C244.473 36.6012 244.437 36.3078 244.437 35.9777C244.4 35.6844 244.4 35.391 244.363 35.0976C244.327 34.8042 244.29 34.5108 244.253 34.254C244.217 33.9973 244.18 33.7039 244.107 33.4472C244.07 33.1905 243.997 32.9338 243.96 32.677C243.923 32.4203 243.85 32.2003 243.777 31.9435C243.703 31.7235 243.667 31.5035 243.593 31.2467C243.52 31.0267 243.446 30.8066 243.373 30.5866C243.3 30.3665 243.226 30.1465 243.153 29.9631C243.08 29.7431 243.006 29.5597 242.933 29.3763C242.86 29.193 242.75 28.9729 242.676 28.7895C242.603 28.6062 242.493 28.4228 242.42 28.2394C242.346 28.056 242.236 27.8727 242.126 27.726C242.016 27.5426 241.943 27.3959 241.833 27.2125C241.723 27.0292 241.649 26.8825 241.539 26.7358C241.429 26.5891 241.356 26.4057 241.246 26.259C241.136 26.1123 241.026 25.9656 240.916 25.8189C240.806 25.6722 240.696 25.5255 240.586 25.3788C240.476 25.2321 240.366 25.0854 240.256 24.9754C240.146 24.8287 240.036 24.7187 239.926 24.572C239.816 24.4253 239.706 24.3152 239.559 24.1685C239.449 24.0218 239.302 23.9118 239.192 23.8018C239.082 23.6918 238.936 23.5451 238.826 23.435C238.715 23.325 238.569 23.215 238.459 23.105C238.312 22.995 238.202 22.8849 238.055 22.7749C237.909 22.6649 237.799 22.5549 237.652 22.4448C237.505 22.3348 237.395 22.2615 237.249 22.1514C237.102 22.0414 236.992 21.9681 236.845 21.858C236.698 21.748 236.552 21.6747 236.442 21.5646C236.295 21.4913 236.148 21.3813 236.002 21.3079C235.855 21.2346 235.708 21.1246 235.561 21.0512C235.415 20.9779 235.268 20.9045 235.121 20.8312C234.975 20.7578 234.828 20.6845 234.681 20.6111C234.535 20.5378 234.388 20.4644 234.241 20.3911C234.094 20.3177 233.948 20.2444 233.801 20.2077C233.654 20.1343 233.508 20.0977 233.324 20.0243C233.178 19.951 232.994 19.9143 232.848 19.8409C232.701 19.8043 232.517 19.7309 232.371 19.6942C232.224 19.6576 232.041 19.5842 231.894 19.5475C231.747 19.5109 231.564 19.4742 231.417 19.4375C231.234 19.4008 231.087 19.3642 230.904 19.3275C230.72 19.2908 230.574 19.2541 230.39 19.2175C230.207 19.1808 230.06 19.1441 229.877 19.1441C229.694 19.1075 229.547 19.1075 229.363 19.0708C229.18 19.0341 228.997 19.0341 228.85 18.9974C228.667 18.9608 228.483 18.9608 228.3 18.9608C228.117 18.9608 227.933 18.9241 227.75 18.9241C227.566 18.9241 227.383 18.9241 227.2 18.8874C227.016 18.8874 226.833 18.8874 226.65 18.8874H226.613C226.43 18.8874 226.246 18.8874 226.063 18.8874C225.879 18.8874 225.696 18.8874 225.476 18.8874C225.293 18.8874 225.109 18.8874 224.889 18.9241C224.706 18.9241 224.486 18.9608 224.302 18.9608C224.119 18.9608 223.899 18.9974 223.716 18.9974C223.532 19.0341 223.312 19.0341 223.129 19.0708C222.909 19.1075 222.725 19.1441 222.505 19.1441C222.285 19.1808 222.102 19.2175 221.882 19.2541C221.662 19.2908 221.442 19.3275 221.258 19.4008C221.038 19.4375 220.818 19.5109 220.598 19.5475C220.378 19.6209 220.158 19.6576 219.938 19.7309C219.718 19.8043 219.498 19.8776 219.241 19.951C219.021 20.0243 218.765 20.1343 218.545 20.2077C218.288 20.3177 218.068 20.3911 217.811 20.5011C217.554 20.6111 217.298 20.7211 217.041 20.8678C216.784 21.0145 216.527 21.1246 216.271 21.2712C215.977 21.4179 215.721 21.6013 215.427 21.748C215.134 21.9314 214.84 22.1148 214.547 22.3348C214.217 22.5549 213.887 22.8116 213.593 23.0683C213.227 23.3617 212.86 23.6918 212.53 24.0218C212.053 24.4619 211.613 24.9387 211.21 25.4155C211.173 25.4522 211.136 25.4888 211.1 25.5255V0H206.845C206.699 0 206.515 0 206.369 0.0366746C206.149 0.0733491 205.965 0.0733491 205.745 0.110024C205.525 0.146698 205.305 0.220047 205.085 0.293397C204.828 0.366746 204.572 0.513444 204.352 0.623468C204.021 0.806841 203.691 1.02689 203.435 1.28361C202.554 2.05378 201.968 3.11734 201.784 4.36427C201.748 4.621 201.711 4.87772 201.711 5.13444V59.7795C201.711 60.0729 201.748 60.3663 201.784 60.6597C201.821 60.9165 201.894 61.1365 201.968 61.3566C202.041 61.5766 202.114 61.76 202.188 61.9433C202.261 62.1267 202.371 62.3101 202.481 62.4568C202.591 62.6035 202.701 62.7502 202.811 62.8969C202.921 63.0436 203.031 63.1536 203.141 63.3003C203.251 63.4103 203.398 63.5204 203.508 63.6304C203.655 63.7404 203.765 63.8504 203.911 63.9238C204.058 63.9971 204.205 64.1071 204.352 64.1805C204.498 64.2538 204.645 64.3272 204.792 64.4005C204.938 64.4739 205.085 64.5106 205.268 64.5839C205.415 64.6206 205.598 64.6573 205.745 64.6939C205.929 64.7306 206.075 64.7673 206.259 64.7673C206.442 64.7673 206.625 64.804 206.809 64.804H211.026V44.1929C211.026 43.9361 211.026 43.6794 211.026 43.4227C211.026 43.0559 211.026 42.6525 211.063 42.2858C211.1 41.8824 211.1 41.4789 211.136 41.0755C211.173 40.5987 211.246 40.1587 211.283 39.7186C211.356 39.1684 211.466 38.655 211.576 38.1416C211.76 37.3714 211.943 36.6379 212.2 35.9411C212.75 34.4007 213.447 33.0805 214.364 31.9435C214.437 31.8702 214.51 31.7969 214.547 31.7235C214.914 31.2834 215.28 30.9167 215.684 30.5499C216.014 30.2565 216.344 29.9998 216.674 29.7431C216.968 29.523 217.261 29.3397 217.554 29.1563C217.811 29.0096 218.068 28.8629 218.361 28.7529C218.618 28.6428 218.838 28.5328 219.095 28.4228C219.315 28.3494 219.571 28.2394 219.791 28.1661C220.011 28.0927 220.232 28.0194 220.452 27.946C220.672 27.9093 220.892 27.836 221.112 27.7993C221.332 27.7626 221.515 27.726 221.735 27.6893C221.919 27.6526 222.139 27.616 222.359 27.616C222.542 27.5793 222.762 27.5793 222.945 27.5426C223.129 27.5426 223.349 27.5059 223.532 27.5059C223.716 27.5059 223.899 27.5059 224.119 27.5059C224.192 27.5059 224.266 27.5059 224.339 27.5059C224.449 27.5059 224.559 27.5059 224.669 27.5059C224.853 27.5059 225.036 27.5059 225.219 27.5426C225.403 27.5426 225.586 27.5793 225.769 27.5793C225.953 27.5793 226.136 27.6159 226.283 27.6526C226.466 27.6893 226.613 27.726 226.796 27.7626C226.98 27.7993 227.126 27.836 227.31 27.8727C227.493 27.9093 227.64 27.946 227.786 28.0194C227.933 28.0927 228.117 28.1294 228.263 28.2027C228.41 28.2761 228.593 28.3128 228.74 28.3861C228.887 28.4595 229.033 28.5328 229.18 28.6062C229.327 28.6795 229.473 28.7529 229.62 28.8262C229.767 28.8996 229.914 29.0096 230.024 29.0829C230.17 29.1563 230.317 29.2663 230.427 29.3763C230.574 29.4864 230.684 29.5597 230.83 29.6697C230.977 29.7797 231.087 29.8898 231.197 29.9998C231.307 30.1098 231.454 30.2198 231.564 30.3665C231.674 30.4766 231.821 30.6233 231.931 30.7333C231.967 30.77 232.004 30.8066 232.004 30.8433C232.077 30.9533 232.187 31.0267 232.261 31.1367C232.371 31.2834 232.481 31.4301 232.591 31.5768C232.701 31.7235 232.811 31.8702 232.921 32.0169C233.031 32.1636 233.141 32.347 233.214 32.4937C233.324 32.677 233.398 32.8237 233.508 33.0071C233.618 33.1905 233.691 33.3739 233.764 33.5572C233.838 33.7406 233.948 33.9606 234.021 34.144C234.094 34.3641 234.168 34.5474 234.241 34.7675C234.315 34.9875 234.388 35.2076 234.425 35.4276C234.498 35.6477 234.535 35.9044 234.608 36.1611C234.681 36.4178 234.718 36.6746 234.755 36.9313C234.791 37.2247 234.828 37.4814 234.865 37.7748C234.901 38.0682 234.901 38.3616 234.938 38.6917C234.938 38.9851 234.975 39.2785 234.975 39.6085V64.7306H244.437V37.7015C244.51 37.5181 244.51 37.2247 244.473 36.9313Z" fill="#173F92"/>
<path d="M188.443 20.1703C188.369 20.1703 188.296 20.1703 188.186 20.1703C188.003 20.1703 187.783 20.207 187.599 20.2437C187.379 20.2804 187.159 20.317 186.939 20.3904C186.682 20.4637 186.462 20.5737 186.206 20.6838C185.912 20.8305 185.619 20.9772 185.362 21.1972C184.739 21.6373 184.262 22.2241 183.895 22.8842C183.528 23.5444 183.308 24.2779 183.272 25.048C183.272 25.1214 183.272 25.2314 183.272 25.3048C183.235 25.2681 183.198 25.2314 183.198 25.2314C183.088 25.1214 182.942 24.9747 182.832 24.8647C182.722 24.7547 182.575 24.608 182.465 24.4979C182.355 24.3879 182.208 24.2779 182.098 24.1312C181.951 24.0212 181.841 23.9111 181.731 23.8011C181.585 23.6911 181.475 23.5811 181.328 23.471C181.181 23.361 181.071 23.251 180.924 23.1776C180.778 23.0676 180.668 22.9943 180.521 22.8842C180.374 22.7742 180.264 22.7009 180.118 22.5908C179.971 22.4808 179.824 22.4075 179.714 22.2975C179.568 22.2241 179.421 22.1141 179.311 22.0407C179.164 21.9674 179.017 21.8574 178.871 21.784C178.724 21.7107 178.577 21.6006 178.431 21.5273C178.284 21.4539 178.137 21.3806 177.991 21.3072C177.844 21.2339 177.697 21.1605 177.55 21.0872C177.404 21.0138 177.257 20.9405 177.11 20.8671C176.964 20.7938 176.817 20.7204 176.67 20.6471C176.524 20.5737 176.377 20.5371 176.193 20.4637C176.047 20.3904 175.863 20.3537 175.717 20.2804C175.57 20.2437 175.387 20.1703 175.24 20.1337C175.093 20.0603 174.91 20.0236 174.763 19.987C174.616 19.9503 174.433 19.8769 174.286 19.8403C174.14 19.8036 173.956 19.7302 173.81 19.6936C173.626 19.6569 173.48 19.6202 173.296 19.5835C173.113 19.5469 172.966 19.5102 172.783 19.4735C172.599 19.4368 172.453 19.4002 172.269 19.3635C172.086 19.3268 171.939 19.2901 171.756 19.2535C171.572 19.2168 171.426 19.1801 171.242 19.1801C171.059 19.1434 170.876 19.1434 170.729 19.1068C170.546 19.0701 170.362 19.0701 170.216 19.0334C170.032 19.0334 169.849 18.9967 169.665 18.9967C169.482 18.9967 169.299 18.9601 169.115 18.9601C168.932 18.9601 168.749 18.9234 168.565 18.9234C168.382 18.9234 168.198 18.8867 168.015 18.8867C167.832 18.8867 167.648 18.8867 167.465 18.8867C167.355 18.8867 167.208 18.8867 167.098 18.8867C167.025 18.8867 166.952 18.8867 166.915 18.8867C166.731 18.8867 166.548 18.8867 166.328 18.8867C166.145 18.8867 165.961 18.8867 165.741 18.9234C165.558 18.9234 165.338 18.9601 165.154 18.9601C164.971 18.9601 164.751 18.9967 164.568 18.9967C164.348 19.0334 164.164 19.0334 163.981 19.0701C163.761 19.1068 163.577 19.1434 163.357 19.1801C163.137 19.2168 162.954 19.2535 162.734 19.2901C162.514 19.3268 162.294 19.3635 162.074 19.4368C161.854 19.4735 161.634 19.5469 161.414 19.5835C161.194 19.6569 160.974 19.6936 160.754 19.7669C160.533 19.8403 160.313 19.9136 160.057 19.987C159.837 20.0603 159.58 20.1337 159.36 20.2437C159.103 20.317 158.883 20.4271 158.626 20.5371C158.37 20.6471 158.113 20.7571 157.893 20.8671C157.636 20.9772 157.379 21.1239 157.123 21.2706C156.866 21.4173 156.573 21.564 156.316 21.7107C156.023 21.894 155.729 22.0407 155.472 22.2241C155.179 22.4075 154.886 22.6275 154.556 22.8476C154.225 23.0676 153.895 23.3243 153.602 23.5811C153.235 23.8745 152.905 24.1679 152.538 24.4979C152.172 24.828 151.842 25.1581 151.475 25.5248C151.438 25.5615 151.402 25.5982 151.365 25.6348C150.851 26.1483 150.375 26.6984 149.935 27.2485C148.248 29.3756 146.964 31.7228 146.12 34.29C145.9 34.9869 145.717 35.6837 145.534 36.3805C145.424 36.8939 145.314 37.444 145.24 37.9942C145.167 38.4343 145.094 38.911 145.057 39.3511C145.02 39.7545 144.984 40.158 144.947 40.5981C144.91 40.9648 144.91 41.3316 144.91 41.735C144.91 41.955 144.91 42.2117 144.91 42.4318C144.91 42.5418 144.91 42.6518 144.91 42.7985C144.91 43.1286 144.91 43.4587 144.947 43.7888C144.947 44.1188 144.983 44.4122 144.983 44.7423C145.02 45.0357 145.02 45.3658 145.057 45.6592C145.094 45.9526 145.13 46.2093 145.167 46.5027C145.204 46.7961 145.24 47.0528 145.277 47.3095C145.314 47.5662 145.35 47.823 145.424 48.0797C145.46 48.3364 145.534 48.5931 145.57 48.8132C145.607 49.0699 145.68 49.2899 145.754 49.5467C145.827 49.7667 145.864 49.9868 145.937 50.2435C146.01 50.4635 146.084 50.6836 146.157 50.9036C146.23 51.1237 146.304 51.3437 146.377 51.5271C146.45 51.7471 146.524 51.9305 146.597 52.1506C146.671 52.3339 146.744 52.554 146.854 52.7373C146.927 52.9207 147.037 53.1041 147.111 53.2875C147.184 53.4708 147.294 53.6542 147.367 53.8376C147.441 54.021 147.551 54.2043 147.661 54.3877C147.734 54.5711 147.844 54.7178 147.954 54.9011C148.064 55.0845 148.138 55.2312 148.248 55.4146C148.358 55.5613 148.431 55.7447 148.541 55.8914C148.651 56.0381 148.761 56.1848 148.871 56.3681C148.981 56.5148 149.091 56.6615 149.201 56.8082C149.311 56.9549 149.421 57.1016 149.531 57.2483C149.641 57.395 149.751 57.5417 149.861 57.6884C149.971 57.8351 150.081 57.9818 150.191 58.0918C150.301 58.2385 150.411 58.3486 150.521 58.4953C150.631 58.6419 150.741 58.752 150.888 58.8987C150.998 59.0454 151.108 59.1554 151.255 59.2654C151.328 59.3388 151.365 59.4121 151.438 59.4488C151.512 59.5221 151.548 59.5588 151.622 59.6322C151.732 59.7422 151.878 59.8889 151.988 59.9989C152.098 60.1089 152.245 60.219 152.355 60.3657C152.502 60.4757 152.612 60.5857 152.722 60.6957C152.869 60.8058 152.979 60.9158 153.125 61.0258C153.272 61.1358 153.382 61.2458 153.529 61.3559C153.675 61.4659 153.785 61.5759 153.932 61.6859C154.079 61.796 154.189 61.8693 154.335 61.9793C154.482 62.0894 154.592 62.1627 154.739 62.2727C154.886 62.3828 155.032 62.4561 155.142 62.5661C155.289 62.6395 155.436 62.7495 155.546 62.8229C155.692 62.8962 155.839 63.0062 155.949 63.0796C156.096 63.1529 156.243 63.2629 156.389 63.3363C156.536 63.4096 156.683 63.5197 156.829 63.593C156.976 63.6664 157.123 63.7397 157.269 63.8131C157.416 63.8864 157.563 63.9598 157.71 64.0331C157.856 64.1065 158.003 64.1798 158.15 64.2532C158.296 64.3265 158.443 64.3999 158.59 64.4365C158.736 64.5099 158.883 64.5466 159.03 64.6199C159.177 64.6933 159.36 64.7299 159.507 64.8033C159.653 64.8766 159.837 64.9133 159.983 64.9866C160.13 65.06 160.313 65.0967 160.46 65.1334C160.607 65.17 160.79 65.2434 160.937 65.28C161.084 65.3167 161.267 65.3534 161.414 65.4267C161.56 65.4634 161.744 65.5001 161.927 65.5368C162.11 65.5734 162.257 65.6101 162.441 65.6468C162.624 65.6835 162.771 65.7201 162.954 65.7568C163.137 65.7935 163.284 65.8302 163.467 65.8302C163.651 65.8668 163.798 65.9035 163.981 65.9035C164.164 65.9402 164.348 65.9402 164.531 65.9769C164.714 65.9769 164.898 66.0135 165.081 66.0135C165.264 66.0135 165.448 66.0502 165.631 66.0502C165.815 66.0502 165.998 66.0869 166.181 66.0869C166.365 66.0869 166.548 66.0869 166.731 66.0869C166.841 66.0869 166.952 66.0869 167.062 66.0869C167.135 66.0869 167.208 66.0869 167.282 66.0869C167.465 66.0869 167.648 66.0869 167.832 66.0869C168.015 66.0869 168.198 66.0869 168.419 66.0502C168.602 66.0502 168.822 66.0502 169.005 66.0135C169.189 66.0135 169.409 65.9769 169.592 65.9769C169.775 65.9769 169.995 65.9402 170.179 65.9035C170.399 65.8668 170.582 65.8668 170.766 65.8302C170.986 65.7935 171.169 65.7568 171.389 65.7568C171.609 65.7201 171.793 65.6835 172.013 65.6468C172.233 65.6101 172.453 65.5734 172.636 65.5368C172.856 65.5001 173.076 65.4634 173.26 65.3901C173.48 65.3534 173.7 65.28 173.92 65.2067C174.14 65.1334 174.36 65.0967 174.58 65.0233C174.8 64.95 175.02 64.8766 175.277 64.8033C175.497 64.7299 175.753 64.6566 175.973 64.5466C176.23 64.4732 176.45 64.3632 176.707 64.2532C176.964 64.1431 177.22 64.0331 177.44 63.9231C177.697 63.8131 177.954 63.6664 178.211 63.5197C178.504 63.373 178.761 63.2263 179.017 63.0429C179.311 62.8595 179.604 62.6762 179.861 62.4928C180.154 62.2727 180.484 62.0527 180.778 61.8326C181.108 61.5759 181.438 61.3192 181.768 61.0258C182.171 60.6957 182.538 60.329 182.905 59.9622C183.015 59.8522 183.088 59.7789 183.198 59.6688C183.198 59.9256 183.198 60.1456 183.235 60.3657C183.272 60.6224 183.308 60.8791 183.382 61.0991C183.455 61.3192 183.528 61.5026 183.602 61.7226C183.675 61.906 183.785 62.0894 183.858 62.2727C183.968 62.4194 184.042 62.6028 184.189 62.7495C184.299 62.8962 184.409 63.0429 184.519 63.1529C184.629 63.2629 184.739 63.4096 184.885 63.5197C184.995 63.6297 185.142 63.7397 185.289 63.8497C185.435 63.9598 185.582 64.0331 185.692 64.1065C185.839 64.1798 185.986 64.2532 186.132 64.3265C186.279 64.3999 186.426 64.4732 186.609 64.5099C186.756 64.5832 186.939 64.6199 187.086 64.6566C187.269 64.6933 187.416 64.7299 187.599 64.7666C187.783 64.8033 187.966 64.8033 188.149 64.8033C188.186 64.8033 188.259 64.8033 188.296 64.8033H192.514V20.1703H188.443ZM183.308 42.7985C183.308 43.1653 183.308 43.5687 183.272 43.9354C183.235 44.3755 183.198 44.8156 183.125 45.2557C183.052 45.8059 182.942 46.356 182.795 46.9061C182.208 49.1799 181.145 51.1603 179.568 52.884C179.347 53.1041 179.127 53.3241 178.907 53.5442C178.724 53.7276 178.541 53.8743 178.357 54.0576C178.027 54.351 177.697 54.6444 177.33 54.9011C177.037 55.1212 176.707 55.3412 176.414 55.5613C176.12 55.7447 175.863 55.928 175.57 56.0747C175.313 56.2214 175.057 56.3681 174.8 56.4781C174.543 56.5882 174.323 56.6982 174.066 56.8082C173.846 56.9182 173.59 56.9916 173.37 57.0649C173.15 57.1383 172.929 57.2116 172.673 57.285C172.453 57.3583 172.233 57.395 172.013 57.4684C171.793 57.505 171.609 57.5784 171.389 57.6151C171.169 57.6517 170.986 57.6884 170.766 57.7251C170.582 57.7618 170.362 57.7618 170.179 57.7984C169.995 57.7984 169.775 57.8351 169.592 57.8351C169.409 57.8351 169.225 57.8718 169.005 57.8718C168.895 57.8718 168.785 57.8718 168.639 57.8718C168.565 57.8718 168.492 57.8718 168.419 57.8718C168.235 57.8718 168.052 57.8718 167.868 57.8718C167.685 57.8718 167.502 57.8351 167.318 57.8351C167.135 57.8351 166.952 57.7984 166.768 57.7984C166.585 57.7984 166.401 57.7618 166.255 57.7251C166.071 57.6884 165.888 57.6884 165.741 57.6517C165.558 57.6151 165.411 57.5784 165.228 57.5417C165.044 57.505 164.898 57.4684 164.714 57.4317C164.531 57.395 164.384 57.3583 164.201 57.285C164.054 57.2483 163.871 57.175 163.724 57.1383C163.577 57.0649 163.394 57.0283 163.247 56.9549C163.101 56.8816 162.954 56.8449 162.771 56.7715C162.624 56.6982 162.477 56.6249 162.331 56.5882C162.184 56.5148 162.037 56.4415 161.89 56.3681C161.744 56.2948 161.597 56.2214 161.45 56.1481C161.304 56.0747 161.157 56.0014 161.01 55.8914C160.864 55.818 160.717 55.708 160.607 55.6346C160.46 55.5613 160.313 55.4513 160.203 55.3412C160.057 55.2679 159.947 55.1579 159.8 55.0478C159.653 54.9378 159.543 54.8645 159.397 54.7544C159.25 54.6444 159.14 54.5344 158.993 54.4244C158.846 54.3144 158.736 54.2043 158.626 54.0943C158.48 53.9843 158.37 53.8743 158.26 53.7276C158.223 53.6909 158.223 53.6909 158.186 53.6542C158.076 53.5442 158.003 53.4342 157.893 53.3608C157.783 53.2508 157.673 53.1041 157.526 52.9574C157.416 52.8107 157.306 52.7007 157.196 52.554C157.086 52.4073 156.976 52.2606 156.866 52.1139C156.756 51.9672 156.646 51.8205 156.536 51.6738C156.426 51.5271 156.316 51.3437 156.243 51.197C156.133 51.0503 156.059 50.8669 155.949 50.6836C155.839 50.5002 155.766 50.3168 155.656 50.1701C155.582 49.9868 155.472 49.8034 155.399 49.62C155.326 49.4366 155.216 49.2166 155.142 49.0332C155.069 48.8132 154.996 48.6298 154.922 48.4097C154.849 48.1897 154.776 47.9697 154.702 47.7496C154.629 47.5296 154.556 47.2728 154.519 47.0528C154.446 46.7961 154.409 46.576 154.372 46.3193C154.335 46.0626 154.262 45.8059 154.225 45.5125C154.189 45.2191 154.152 44.9623 154.115 44.6689C154.079 44.3755 154.079 44.0455 154.042 43.7521C154.005 43.422 154.005 43.0919 154.005 42.7619V42.5418C154.005 42.2484 154.005 41.955 154.005 41.6983C154.042 41.2949 154.042 40.8915 154.079 40.488C154.115 40.0113 154.189 39.5345 154.262 39.0944C154.372 38.4709 154.519 37.8475 154.702 37.2607C155.289 35.3169 156.206 33.6299 157.489 32.1262C157.71 31.8695 157.93 31.6495 158.15 31.4294C158.333 31.246 158.553 31.0627 158.736 30.8793C159.066 30.5859 159.397 30.2925 159.763 30.0358C160.057 29.8157 160.35 29.5957 160.68 29.4123C160.937 29.2289 161.23 29.0822 161.487 28.9356C161.744 28.7889 162 28.6788 162.257 28.5688C162.514 28.4588 162.734 28.3488 162.991 28.2754C163.211 28.2021 163.467 28.092 163.687 28.0187C163.908 27.9453 164.128 27.872 164.348 27.8353C164.568 27.762 164.788 27.7253 165.008 27.6886C165.228 27.6519 165.411 27.6153 165.631 27.5786C165.851 27.5419 166.035 27.5052 166.255 27.4686C166.438 27.4319 166.658 27.4319 166.841 27.3952C167.025 27.3952 167.245 27.3585 167.428 27.3585C167.612 27.3585 167.795 27.3219 168.015 27.3219C168.198 27.3219 168.382 27.3219 168.565 27.3219C168.749 27.3219 168.932 27.3219 169.115 27.3219C169.299 27.3219 169.482 27.3219 169.665 27.3585C169.849 27.3585 170.032 27.3952 170.216 27.3952C170.399 27.3952 170.546 27.4319 170.729 27.4686C170.912 27.5052 171.059 27.5052 171.242 27.5419C171.426 27.5786 171.572 27.6153 171.756 27.6519C171.903 27.6886 172.086 27.7253 172.269 27.762C172.416 27.7986 172.599 27.8353 172.746 27.9087C172.893 27.9453 173.076 28.0187 173.223 28.0554C173.37 28.092 173.553 28.1654 173.7 28.2387C173.846 28.3121 173.993 28.3488 174.176 28.4221C174.323 28.4955 174.47 28.5688 174.616 28.6055C174.763 28.6788 174.91 28.7522 175.057 28.8255C175.203 28.8989 175.35 28.9722 175.497 29.0456C175.643 29.1189 175.79 29.1923 175.937 29.3023C176.083 29.3756 176.23 29.4857 176.34 29.559C176.487 29.6324 176.634 29.7424 176.744 29.8524C176.89 29.9258 177 30.0358 177.147 30.1458C177.294 30.2558 177.404 30.3292 177.55 30.4392C177.697 30.5492 177.807 30.6593 177.954 30.7693C178.101 30.8793 178.211 30.9893 178.357 31.0994C178.467 31.2094 178.614 31.3194 178.724 31.4294C178.761 31.4661 178.797 31.5028 178.834 31.5394C178.907 31.6128 179.017 31.6861 179.091 31.7962C179.201 31.9062 179.347 32.0529 179.458 32.1629C179.568 32.2729 179.678 32.4196 179.824 32.5663C179.934 32.713 180.044 32.8231 180.154 32.9698C180.264 33.1165 180.374 33.2631 180.484 33.4098C180.594 33.5565 180.704 33.7032 180.814 33.8499C180.924 33.9966 181.035 34.18 181.108 34.3267C181.218 34.4734 181.328 34.6568 181.401 34.8402C181.511 35.0235 181.585 35.1702 181.695 35.3536C181.768 35.537 181.878 35.7203 181.951 35.9037C182.025 36.0871 182.135 36.3071 182.208 36.4905C182.281 36.6739 182.355 36.8939 182.428 37.114C182.501 37.334 182.575 37.5541 182.648 37.7741C182.722 37.9942 182.795 38.2509 182.832 38.4709C182.905 38.7277 182.942 38.9477 182.978 39.2044C183.015 39.4612 183.088 39.7545 183.125 40.0113C183.162 40.3047 183.198 40.5981 183.235 40.8548C183.272 41.1482 183.272 41.4783 183.308 41.8083C183.308 42.065 183.308 42.3218 183.308 42.5418C183.308 42.6152 183.308 42.6885 183.308 42.7985Z" fill="#173F92"/>
<path d="M315.658 20.1703C315.584 20.1703 315.511 20.1703 315.401 20.1703C315.218 20.1703 314.997 20.207 314.814 20.2437C314.594 20.2804 314.374 20.317 314.154 20.3904C313.897 20.4637 313.677 20.5737 313.42 20.6838C313.127 20.8305 312.834 20.9772 312.577 21.1972C311.953 21.6373 311.477 22.2241 311.11 22.8842C310.743 23.5444 310.523 24.2779 310.487 25.048C310.487 25.1214 310.487 25.2314 310.487 25.3048C310.45 25.2681 310.413 25.2314 310.413 25.2314C310.303 25.1214 310.156 24.9747 310.046 24.8647C309.936 24.7547 309.79 24.608 309.68 24.4979C309.57 24.3879 309.423 24.2779 309.313 24.1312C309.166 24.0212 309.056 23.9111 308.946 23.8011C308.799 23.6911 308.689 23.5811 308.543 23.471C308.396 23.361 308.286 23.251 308.139 23.1776C307.993 23.0676 307.883 22.9943 307.736 22.8842C307.589 22.7742 307.479 22.7009 307.333 22.5908C307.186 22.4808 307.039 22.4075 306.929 22.2975C306.782 22.2241 306.636 22.1141 306.526 22.0407C306.379 21.9674 306.232 21.8574 306.086 21.784C305.939 21.7107 305.792 21.6006 305.645 21.5273C305.499 21.4539 305.352 21.3806 305.205 21.3072C305.059 21.2339 304.912 21.1605 304.765 21.0872C304.619 21.0138 304.472 20.9405 304.325 20.8671C304.179 20.7938 304.032 20.7204 303.885 20.6471C303.738 20.5737 303.592 20.5371 303.408 20.4637C303.262 20.3904 303.078 20.3537 302.932 20.2804C302.785 20.2437 302.602 20.1703 302.455 20.1337C302.308 20.0603 302.125 20.0236 301.978 19.987C301.831 19.9503 301.648 19.8769 301.501 19.8403C301.355 19.8036 301.171 19.7302 301.024 19.6936C300.841 19.6569 300.694 19.6202 300.511 19.5835C300.328 19.5469 300.181 19.5102 299.998 19.4735C299.814 19.4368 299.668 19.4002 299.484 19.3635C299.301 19.3268 299.154 19.2901 298.971 19.2535C298.787 19.2168 298.641 19.1801 298.457 19.1801C298.274 19.1434 298.091 19.1434 297.944 19.1068C297.76 19.0701 297.577 19.0701 297.43 19.0334C297.247 19.0334 297.064 18.9967 296.88 18.9967C296.697 18.9967 296.514 18.9601 296.33 18.9601C296.147 18.9601 295.963 18.9234 295.78 18.9234C295.597 18.9234 295.413 18.8867 295.23 18.8867C295.047 18.8867 294.863 18.8867 294.68 18.8867C294.57 18.8867 294.423 18.8867 294.313 18.8867C294.24 18.8867 294.166 18.8867 294.13 18.8867C293.946 18.8867 293.763 18.8867 293.543 18.8867C293.36 18.8867 293.176 18.8867 292.956 18.9234C292.773 18.9234 292.553 18.9601 292.369 18.9601C292.186 18.9601 291.966 18.9967 291.783 18.9967C291.562 19.0334 291.379 19.0334 291.196 19.0701C290.976 19.1068 290.792 19.1434 290.572 19.1801C290.352 19.2168 290.169 19.2535 289.949 19.2901C289.729 19.3268 289.509 19.3635 289.289 19.4368C289.069 19.4735 288.849 19.5469 288.629 19.5835C288.408 19.6569 288.188 19.6936 287.968 19.7669C287.748 19.8403 287.528 19.9136 287.272 19.987C287.052 20.0603 286.795 20.1337 286.575 20.2437C286.318 20.317 286.098 20.4271 285.841 20.5371C285.585 20.6471 285.328 20.7571 285.108 20.8671C284.851 20.9772 284.594 21.1239 284.338 21.2706C284.081 21.4173 283.787 21.564 283.531 21.7107C283.237 21.894 282.944 22.0407 282.687 22.2241C282.394 22.4075 282.1 22.6275 281.77 22.8476C281.44 23.0676 281.11 23.3243 280.817 23.5811C280.45 23.8745 280.12 24.1679 279.753 24.4979C279.387 24.828 279.056 25.1581 278.69 25.5248C278.653 25.5615 278.616 25.5982 278.58 25.6348C278.066 26.1483 277.59 26.6984 277.149 27.2485C275.462 29.3756 274.179 31.7228 273.335 34.29C273.115 34.9869 272.932 35.6837 272.748 36.3805C272.638 36.8939 272.528 37.444 272.455 37.9942C272.382 38.4343 272.308 38.911 272.272 39.3511C272.235 39.7545 272.198 40.158 272.162 40.5981C272.125 40.9648 272.125 41.3316 272.125 41.735C272.125 41.955 272.125 42.2117 272.125 42.4318C272.125 42.5418 272.125 42.6518 272.125 42.7985C272.125 43.1286 272.125 43.4587 272.162 43.7888C272.162 44.1188 272.198 44.4122 272.198 44.7423C272.235 45.0357 272.235 45.3658 272.272 45.6592C272.308 45.9526 272.345 46.2093 272.382 46.5027C272.418 46.7961 272.455 47.0528 272.492 47.3095C272.528 47.5662 272.565 47.823 272.638 48.0797C272.675 48.3364 272.748 48.5931 272.785 48.8132C272.822 49.0699 272.895 49.2899 272.969 49.5467C273.042 49.7667 273.079 49.9868 273.152 50.2435C273.225 50.4635 273.299 50.6836 273.372 50.9036C273.445 51.1237 273.519 51.3437 273.592 51.5271C273.665 51.7471 273.739 51.9305 273.812 52.1506C273.885 52.3339 273.959 52.554 274.069 52.7373C274.142 52.9207 274.252 53.1041 274.325 53.2875C274.399 53.4708 274.509 53.6542 274.582 53.8376C274.656 54.021 274.766 54.2043 274.876 54.3877C274.949 54.5711 275.059 54.7178 275.169 54.9011C275.279 55.0845 275.352 55.2312 275.462 55.4146C275.572 55.5613 275.646 55.7447 275.756 55.8914C275.866 56.0381 275.976 56.1848 276.086 56.3681C276.196 56.5148 276.306 56.6615 276.416 56.8082C276.526 56.9549 276.636 57.1016 276.746 57.2483C276.856 57.395 276.966 57.5417 277.076 57.6884C277.186 57.8351 277.296 57.9818 277.406 58.0918C277.516 58.2385 277.626 58.3486 277.736 58.4953C277.846 58.6419 277.956 58.752 278.103 58.8987C278.213 59.0454 278.323 59.1554 278.47 59.2654C278.543 59.3388 278.58 59.4121 278.653 59.4488C278.726 59.5221 278.763 59.5588 278.836 59.6322C278.946 59.7422 279.093 59.8889 279.203 59.9989C279.313 60.1089 279.46 60.219 279.57 60.3657C279.717 60.4757 279.827 60.5857 279.937 60.6957C280.083 60.8058 280.193 60.9158 280.34 61.0258C280.487 61.1358 280.597 61.2458 280.744 61.3559C280.89 61.4659 281 61.5759 281.147 61.6859C281.294 61.796 281.404 61.8693 281.55 61.9793C281.697 62.0894 281.807 62.1627 281.954 62.2727C282.1 62.3828 282.247 62.4561 282.357 62.5661C282.504 62.6395 282.651 62.7495 282.761 62.8229C282.907 62.8962 283.054 63.0062 283.164 63.0796C283.311 63.1529 283.457 63.2629 283.604 63.3363C283.751 63.4096 283.898 63.5197 284.044 63.593C284.191 63.6664 284.338 63.7397 284.484 63.8131C284.631 63.8864 284.778 63.9598 284.924 64.0331C285.071 64.1065 285.218 64.1798 285.364 64.2532C285.511 64.3265 285.658 64.3999 285.805 64.4365C285.951 64.5099 286.098 64.5466 286.245 64.6199C286.391 64.6933 286.575 64.7299 286.721 64.8033C286.868 64.8766 287.052 64.9133 287.198 64.9866C287.345 65.06 287.528 65.0967 287.675 65.1334C287.822 65.17 288.005 65.2434 288.152 65.28C288.298 65.3167 288.482 65.3534 288.629 65.4267C288.775 65.4634 288.959 65.5001 289.142 65.5368C289.325 65.5734 289.472 65.6101 289.655 65.6468C289.839 65.6835 289.985 65.7201 290.169 65.7568C290.352 65.7935 290.499 65.8302 290.682 65.8302C290.866 65.8668 291.012 65.9035 291.196 65.9035C291.379 65.9402 291.562 65.9402 291.746 65.9769C291.929 65.9769 292.113 66.0135 292.296 66.0135C292.479 66.0135 292.663 66.0502 292.846 66.0502C293.029 66.0502 293.213 66.0869 293.396 66.0869C293.58 66.0869 293.763 66.0869 293.946 66.0869C294.056 66.0869 294.166 66.0869 294.276 66.0869C294.35 66.0869 294.423 66.0869 294.496 66.0869C294.68 66.0869 294.863 66.0869 295.047 66.0869C295.23 66.0869 295.413 66.0869 295.633 66.0502C295.817 66.0502 296.037 66.0502 296.22 66.0135C296.404 66.0135 296.624 65.9769 296.807 65.9769C296.99 65.9769 297.21 65.9402 297.394 65.9035C297.614 65.8668 297.797 65.8668 297.981 65.8302C298.201 65.7935 298.384 65.7568 298.604 65.7568C298.824 65.7201 299.007 65.6835 299.227 65.6468C299.448 65.6101 299.668 65.5734 299.851 65.5368C300.071 65.5001 300.291 65.4634 300.474 65.3901C300.694 65.3534 300.914 65.28 301.135 65.2067C301.355 65.1334 301.575 65.0967 301.795 65.0233C302.015 64.95 302.235 64.8766 302.491 64.8033C302.712 64.7299 302.968 64.6566 303.188 64.5466C303.445 64.4732 303.665 64.3632 303.922 64.2532C304.179 64.1431 304.435 64.0331 304.655 63.9231C304.912 63.8131 305.169 63.6664 305.425 63.5197C305.719 63.373 305.976 63.2263 306.232 63.0429C306.526 62.8595 306.819 62.6762 307.076 62.4928C307.369 62.2727 307.699 62.0527 307.993 61.8326C308.323 61.5759 308.653 61.3192 308.983 61.0258C309.386 60.6957 309.753 60.329 310.12 59.9622C310.23 59.8522 310.303 59.7789 310.413 59.6688C310.413 59.9256 310.413 60.1456 310.45 60.3657C310.487 60.6224 310.523 60.8791 310.597 61.0991C310.67 61.3192 310.743 61.5026 310.817 61.7226C310.89 61.906 311 62.0894 311.073 62.2727C311.183 62.4194 311.257 62.6028 311.403 62.7495C311.513 62.8962 311.623 63.0429 311.733 63.1529C311.843 63.2629 311.953 63.4096 312.1 63.5197C312.21 63.6297 312.357 63.7397 312.504 63.8497C312.65 63.9598 312.797 64.0331 312.907 64.1065C313.054 64.1798 313.2 64.2532 313.347 64.3265C313.494 64.3999 313.641 64.4732 313.824 64.5099C313.971 64.5832 314.154 64.6199 314.301 64.6566C314.484 64.6933 314.631 64.7299 314.814 64.7666C314.997 64.8033 315.181 64.8033 315.364 64.8033C315.401 64.8033 315.474 64.8033 315.511 64.8033H319.728V20.1703H315.658ZM310.523 42.7985C310.523 43.1653 310.523 43.5687 310.487 43.9354C310.45 44.3755 310.413 44.8156 310.34 45.2557C310.266 45.8059 310.156 46.356 310.01 46.9061C309.423 49.1799 308.359 51.1603 306.782 52.884C306.562 53.1041 306.342 53.3241 306.122 53.5442C305.939 53.7276 305.756 53.8743 305.572 54.0576C305.242 54.351 304.912 54.6444 304.545 54.9011C304.252 55.1212 303.922 55.3412 303.628 55.5613C303.335 55.7447 303.078 55.928 302.785 56.0747C302.528 56.2214 302.271 56.3681 302.015 56.4781C301.758 56.5882 301.538 56.6982 301.281 56.8082C301.061 56.9182 300.804 56.9916 300.584 57.0649C300.364 57.1383 300.144 57.2116 299.888 57.285C299.668 57.3583 299.448 57.395 299.227 57.4684C299.007 57.505 298.824 57.5784 298.604 57.6151C298.384 57.6517 298.201 57.6884 297.981 57.7251C297.797 57.7618 297.577 57.7618 297.394 57.7984C297.21 57.7984 296.99 57.8351 296.807 57.8351C296.624 57.8351 296.44 57.8718 296.22 57.8718C296.11 57.8718 296 57.8718 295.853 57.8718C295.78 57.8718 295.707 57.8718 295.633 57.8718C295.45 57.8718 295.267 57.8718 295.083 57.8718C294.9 57.8718 294.716 57.8351 294.533 57.8351C294.35 57.8351 294.166 57.7984 293.983 57.7984C293.8 57.7984 293.616 57.7618 293.47 57.7251C293.286 57.6884 293.103 57.6884 292.956 57.6517C292.773 57.6151 292.626 57.5784 292.443 57.5417C292.259 57.505 292.113 57.4684 291.929 57.4317C291.746 57.395 291.599 57.3583 291.416 57.285C291.269 57.2483 291.086 57.175 290.939 57.1383C290.792 57.0649 290.609 57.0283 290.462 56.9549C290.316 56.8816 290.169 56.8449 289.985 56.7715C289.839 56.6982 289.692 56.6249 289.545 56.5882C289.399 56.5148 289.252 56.4415 289.105 56.3681C288.959 56.2948 288.812 56.2214 288.665 56.1481C288.518 56.0747 288.372 56.0014 288.225 55.8914C288.078 55.818 287.932 55.708 287.822 55.6346C287.675 55.5613 287.528 55.4513 287.418 55.3412C287.272 55.2679 287.162 55.1579 287.015 55.0478C286.868 54.9378 286.758 54.8645 286.611 54.7544C286.465 54.6444 286.355 54.5344 286.208 54.4244C286.061 54.3144 285.951 54.2043 285.841 54.0943C285.695 53.9843 285.585 53.8743 285.475 53.7276C285.438 53.6909 285.438 53.6909 285.401 53.6542C285.291 53.5442 285.218 53.4342 285.108 53.3608C284.998 53.2508 284.888 53.1041 284.741 52.9574C284.631 52.8107 284.521 52.7007 284.411 52.554C284.301 52.4073 284.191 52.2606 284.081 52.1139C283.971 51.9672 283.861 51.8205 283.751 51.6738C283.641 51.5271 283.531 51.3437 283.457 51.197C283.347 51.0503 283.274 50.8669 283.164 50.6836C283.054 50.5002 282.981 50.3168 282.871 50.1701C282.797 49.9868 282.687 49.8034 282.614 49.62C282.541 49.4366 282.431 49.2166 282.357 49.0332C282.284 48.8132 282.21 48.6298 282.137 48.4097C282.064 48.1897 281.99 47.9697 281.917 47.7496C281.844 47.5296 281.77 47.2728 281.734 47.0528C281.66 46.7961 281.624 46.576 281.587 46.3193C281.55 46.0626 281.477 45.8059 281.44 45.5125C281.404 45.2191 281.367 44.9623 281.33 44.6689C281.294 44.3755 281.294 44.0455 281.257 43.7521C281.22 43.422 281.22 43.0919 281.22 42.7619V42.5418C281.22 42.2484 281.22 41.955 281.22 41.6983C281.257 41.2949 281.257 40.8915 281.294 40.488C281.33 40.0113 281.404 39.5345 281.477 39.0944C281.587 38.4709 281.734 37.8475 281.917 37.2607C282.504 35.3169 283.421 33.6299 284.704 32.1262C284.924 31.8695 285.144 31.6495 285.364 31.4294C285.548 31.246 285.768 31.0627 285.951 30.8793C286.281 30.5859 286.611 30.2925 286.978 30.0358C287.272 29.8157 287.565 29.5957 287.895 29.4123C288.152 29.2289 288.445 29.0822 288.702 28.9356C288.959 28.7889 289.215 28.6788 289.472 28.5688C289.729 28.4588 289.949 28.3488 290.206 28.2754C290.426 28.2021 290.682 28.092 290.902 28.0187C291.122 27.9453 291.342 27.872 291.562 27.8353C291.783 27.762 292.003 27.7253 292.223 27.6886C292.443 27.6519 292.626 27.6153 292.846 27.5786C293.066 27.5419 293.25 27.5052 293.47 27.4686C293.653 27.4319 293.873 27.4319 294.056 27.3952C294.24 27.3952 294.46 27.3585 294.643 27.3585C294.827 27.3585 295.01 27.3219 295.23 27.3219C295.413 27.3219 295.597 27.3219 295.78 27.3219C295.963 27.3219 296.147 27.3219 296.33 27.3219C296.514 27.3219 296.697 27.3219 296.88 27.3585C297.064 27.3585 297.247 27.3952 297.43 27.3952C297.614 27.3952 297.76 27.4319 297.944 27.4686C298.127 27.5052 298.274 27.5052 298.457 27.5419C298.641 27.5786 298.787 27.6153 298.971 27.6519C299.117 27.6886 299.301 27.7253 299.484 27.762C299.631 27.7986 299.814 27.8353 299.961 27.9087C300.108 27.9453 300.291 28.0187 300.438 28.0554C300.584 28.092 300.768 28.1654 300.914 28.2387C301.061 28.3121 301.208 28.3488 301.391 28.4221C301.538 28.4955 301.685 28.5688 301.831 28.6055C301.978 28.6788 302.125 28.7522 302.271 28.8255C302.418 28.8989 302.565 28.9722 302.712 29.0456C302.858 29.1189 303.005 29.1923 303.152 29.3023C303.298 29.3756 303.445 29.4857 303.555 29.559C303.702 29.6324 303.848 29.7424 303.958 29.8524C304.105 29.9258 304.215 30.0358 304.362 30.1458C304.509 30.2558 304.619 30.3292 304.765 30.4392C304.912 30.5492 305.022 30.6593 305.169 30.7693C305.315 30.8793 305.425 30.9893 305.572 31.0994C305.682 31.2094 305.829 31.3194 305.939 31.4294C305.976 31.4661 306.012 31.5028 306.049 31.5394C306.122 31.6128 306.232 31.6861 306.306 31.7962C306.416 31.9062 306.562 32.0529 306.672 32.1629C306.782 32.2729 306.892 32.4196 307.039 32.5663C307.149 32.713 307.259 32.8231 307.369 32.9698C307.479 33.1165 307.589 33.2631 307.699 33.4098C307.809 33.5565 307.919 33.7032 308.029 33.8499C308.139 33.9966 308.249 34.18 308.323 34.3267C308.433 34.4734 308.543 34.6568 308.616 34.8402C308.726 35.0235 308.799 35.1702 308.91 35.3536C308.983 35.537 309.093 35.7203 309.166 35.9037C309.24 36.0871 309.35 36.3071 309.423 36.4905C309.496 36.6739 309.57 36.8939 309.643 37.114C309.716 37.334 309.79 37.5541 309.863 37.7741C309.936 37.9942 310.01 38.2509 310.046 38.4709C310.12 38.7277 310.156 38.9477 310.193 39.2044C310.23 39.4612 310.303 39.7545 310.34 40.0113C310.376 40.3047 310.413 40.5981 310.45 40.8548C310.487 41.1482 310.487 41.4783 310.523 41.8083C310.523 42.065 310.523 42.3218 310.523 42.5418C310.523 42.6152 310.523 42.6885 310.523 42.7985Z" fill="#173F92"/>
</g>
<defs>
<clipPath id="clip0_3354_5427">
<rect width="320" height="91.4292" fill="white"/>
</clipPath>
</defs>
</svg>
